<?xml version="1.0" encoding="utf-8"?>
<!-- Generator: Adobe Illustrator 26.1.0, SVG Export Plug-In . SVG Version: 6.00 Build 0)  -->
<svg version="1.1" id="Layer_1" xmlns="http://www.w3.org/2000/svg" xmlns:xlink="http://www.w3.org/1999/xlink" x="0px" y="0px"
	 viewBox="0 0 4000 4000" style="enable-background:new 0 0 4000 4000;" xml:space="preserve">
<style type="text/css">
	.st0{fill:#FFFFFF;}
	.st1{fill:#321B0F;}
	.st2{fill:#F9B17B;}
	.st3{fill:#F9AE7B;}
	.st4{opacity:0.5;}
	.st5{fill:#D5855B;}
	.st6{fill:#8A5D3B;}
	.st7{fill:#2D1409;}
	.st8{fill:#3B2314;}
	.st9{fill:none;stroke:#8A5D3B;stroke-width:35;stroke-linecap:round;stroke-miterlimit:10;}
	.st10{fill:#404041;}
	.st11{fill:#FFFA97;}
</style>
<circle class="st0" cx="2000" cy="2000" r="2000"/>
<g>
	<g>
		<g>
			<path class="st1" d="M2911.1,1875.8c46.7,65.4-23,129.4,18.7,233.7c37.4,93.5,115.7,96.3,143.1,199.1
				c10.1,38.1,12.9,88.4,0,121.5c-68.3,175.4-723.9,231.5-834.6-2.9c-93.5-197.7,204.9-590.2,476.6-610.3
				C2737.9,1814.7,2861.5,1806.1,2911.1,1875.8z"/>
		</g>
		<g>
			<g>
				<path class="st2" d="M2848.6,1935.5H1168.5c-92.7,0-168.2-75.5-168.2-168.2v-39.5c0-92.7,75.5-168.2,168.2-168.2h1680.8
					c92.7,0,168.2,75.5,168.2,168.2v39.5C3017.5,1860,2942,1935.5,2848.6,1935.5z"/>
			</g>
			<g>
				<rect x="1803.3" y="2471.8" class="st3" width="427" height="387.5"/>
			</g>
			<g class="st4">
				<path class="st5" d="M2057,2144c-7.2-2.2-14.4-4.3-21.6-5.8c-46.7-1.4-93.5,0-140.2,3.6c-30.9,5.8-61.8,12.2-92,18.7v473
					c63.3,18.7,115,25.9,143.8,29.5c27.3,3.6,58.2,5.8,93.5,4.3c30.2-0.7,58.2-3.6,82-7.9c21.6-2.9,61.1-9.4,110-24.4
					c0-2.9,0-5.8,0-8.6v-455.8C2171.4,2169.2,2112.4,2160.5,2057,2144z"/>
			</g>
			<g>
				<path class="st2" d="M2118.9,2555.2c-24.4,3.6-53.2,7.2-84.1,7.9c-35.9,0.7-67.6-1.4-95.6-4.3c-74.8-7.9-303.4-42.4-483.1-227.9
					c-34.5-35.2-125.1-130.8-173.3-286.1c-20.1-65.4-31.6-135.2-31.6-207.8v-537c0-385.3,312.7-698.1,698.1-698.1h116.5
					c385.3,0,698.1,312.7,698.1,698.1v537c-1.4,57.5-15.1,294-204.2,493.9C2389.2,2510.6,2180.7,2546.6,2118.9,2555.2z"/>
			</g>
		</g>
		<g>
			<path class="st6" d="M2053.4,2067.8c-1.4,0-2.2,0-3.6,0c-121.5-25.2-176.8-53.2-178.3-90.6c-1.4-25.2,20.8-39.5,44.6-55.4
				c20.8-13.7,46-30.2,64.7-57.5c28.8-44.6,32.3-106.4,10.1-185.5c-2.9-9.3,2.9-18.7,11.5-20.8c9.3-2.2,18.7,2.9,20.8,11.5
				c25.2,88.4,20.1,160.3-14.4,213.5c-22.3,33.1-51.8,53.2-74.1,67.6c-12.9,8.6-29.5,19.4-28.8,25.2c0,1.4,2.9,28.8,151.7,58.9
				c9.4,2.2,15.1,10.8,12.9,20.1C2068.5,2062.1,2061.4,2067.8,2053.4,2067.8z"/>
		</g>
		<g>
			<path class="st7" d="M2318,572.5c-4.3-13.7,0-196.3,112.1-228.6s378.1,74.8,406.2,186.9s-107.1,224.3-107.1,224.3L2318,572.5z"/>
		</g>
		<g>
			<path class="st1" d="M2926.2,1054.9c-38.8-131.6-119.3-218.5-168.9-271.8c-23.7-25.9-98.5-103.5-266-196.3
				c-166.1-92-360.2-199.9-630.5-200.6c-201.3-0.7-350.8,57.5-392.5,74.8c-21.6,8.6-122.9,51.8-238,140.2
				c-66.9,50.3-149.5,113.6-210.6,209.9c-107.1,168.9-94.9,355.9-82,446.4c1.4,51,15.8,155.3,84.8,256.7
				c106.4,156.7,271.8,230.8,368.1,165.3c56.1-38.1,76.9-114.3,64-202c30.9,5.8,63.3,8.6,97.1,8.6c215.7,0,391.1-128.7,391.1-287.6
				c0-1.4,0-2.2,0-3.6c25.2,18.7,54.6,32.3,86.3,39.5c0,0,25.2,5.8,51.8,5.8c56.8,0,141.6-48.9,215.7-137.3
				c6.5-1.4,17.2-2.9,29.5-4.3c43.1-3.6,76.2,5,185.5,34.5c16.5,4.3,29.5,7.9,38.8,10.8c5.8,80.5,32.4,291.9,184,417
				c35.9,30.2,54.6,34.5,69.7,32.3C2903.2,1584,2995.9,1293.5,2926.2,1054.9z"/>
		</g>
		<g>
			<path class="st1" d="M2276.3,1515.7c28,27.3,70.4-10.8,169.7-9.3c93.5,1.4,148.1,35.2,160.3,15.8c11.5-18-27.3-60.4-32.4-65.4
				c-46.7-48.9-109.3-57.5-165.4-64c-64.7-7.2-101.4-11.5-125.8,13.7C2255.5,1435.2,2251.9,1491.9,2276.3,1515.7z"/>
		</g>
		<g>
			<path class="st8" d="M2481.2,1711.9c-19.4,0-34.5-5-40.3-7.2c-8.6-3.6-12.9-13.7-9.4-22.3c3.6-8.6,13.7-12.9,22.3-9.3
				c6.5,2.9,30.9,10.8,56.8-1.4c25.2-11.5,35.2-33.8,38.1-40.3c3.6-8.6,12.9-12.9,21.6-10.1c8.6,3.6,12.9,12.9,10.1,21.6
				c-5,12.2-19.4,43.1-55.4,58.9C2509.2,1709.8,2494.1,1711.9,2481.2,1711.9z"/>
		</g>
		<g>
			<path class="st8" d="M1570.3,1719.1c-12.9,0-28-2.2-43.1-9.3c-35.9-16.5-51-46.7-55.4-58.9c-3.6-8.6,1.4-18.7,10.1-21.6
				c8.6-3.6,18.7,1.4,21.6,10.1c2.2,6.5,12.2,28.8,38.1,40.3s50.3,3.6,56.8,1.4c8.6-3.6,18.7,0.7,22.3,9.3
				c3.6,8.6-0.7,18.7-9.3,22.3C1604.8,1714.1,1589.8,1719.1,1570.3,1719.1z"/>
		</g>
		<line class="st9" x1="1976.9" y1="2257.1" x2="2098.1" y2="2256.3"/>
		<g>
			<ellipse class="st1" cx="1639.3" cy="1751.5" rx="77.6" ry="121.5"/>
		</g>
		<g>
			<ellipse class="st1" cx="2420.8" cy="1751.5" rx="77.6" ry="121.5"/>
		</g>
	</g>
	<g>
		<path class="st2" d="M2832.7,2924.7c-161-69-427.8-160.3-769.2-172.5c-337.2-12.2-606.8,56.8-772.1,113.6
			c-53.2,15.8-158.9,56.1-257.4,153.9c-37.4,37.4-112.2,121.5-153.1,252.3c-18,58.2-28,119.3-28,183.3l0,0H3157l0,0
			c-0.7-59.7-12.2-279.7-180.4-435.7C2928.4,2974.3,2876.6,2944.1,2832.7,2924.7z"/>
	</g>
	<g>
		<path class="st10" d="M976.5,3077.1c-33.8,44.6-70.5,106.4-94.9,185.5c-18,58.2-28,119.3-28,183.3l0,0h2304.1l0,0
			c-0.7-51.8-9.4-222.9-120.1-369.5H976.5V3077.1z"/>
	</g>
	<g>
		<path class="st11" d="M932,3141.9c-20.1,35.2-38.8,76.2-53.2,123.6c-18,58.9-28,121.5-28,186.2l0,0h2304.1l0,0
			c-0.7-45.3-7.2-179-79.1-309.1H932V3141.9z"/>
	</g>
</g>
</svg>
