<?xml version="1.0" encoding="utf-8"?>
<!-- Generator: Adobe Illustrator 26.1.0, SVG Export Plug-In . SVG Version: 6.00 Build 0)  -->
<svg version="1.1" id="Layer_1" xmlns="http://www.w3.org/2000/svg" xmlns:xlink="http://www.w3.org/1999/xlink" x="0px" y="0px"
	 viewBox="0 0 4000 4000" style="enable-background:new 0 0 4000 4000;" xml:space="preserve">
<style type="text/css">
	.st0{fill:#FFFFFF;}
	.st1{fill:#27303A;}
	.st2{fill:#121213;}
	.st3{fill:#FFEE52;stroke:#45413C;stroke-linecap:round;stroke-linejoin:round;}
	.st4{fill:#53E3EA;}
	.st5{fill:#E2E2E2;}
	.st6{fill:#596673;}
	.st7{fill:#A9CCD0;}
</style>
<circle class="st0" cx="2000" cy="2000" r="2000"/>
<g>
	<path class="st1" d="M1136.5,1630.9c-141.9,43.8-266.6,24.3-380.1-60.1c-10.1-7.5-19.7-15.8-28.8-24.6
		c-28.8-27.9-29.4-48.2-0.8-77.3c58.5-59.4,118.4-117.5,176.2-177.6c11-11.5,39.7-19.9,24.4-42.8c-13.9-20.8-30.2-40-65.1-30.5
		c-65.7,17.8-131.6-23.7-150.7-88.3c-15.2-51.3,2.5-105.5,45.3-138.8c40.1-31.2,98.1-35.2,142.6-9.8c47.4,27.1,70.6,78.7,62.7,135.7
		c-1.8,12.8-12.5,24.3-2.8,39.6c23.6,36.9,40,39.6,70.8,8.8c59-59,117.8-118.1,177-176.9c34-33.8,52.7-33.1,85.4,1.8
		c138.6,147.9,137.9,387.1-4.3,537.1c-24.8,26.1-24.2,41.4-3.4,68.3c41,52.9,78.3,108.6,116.1,163.8c11.7,17.1,24.2,25.3,46.2,25.2
		c130.1-1.1,260.3-1.3,390.4,0c27,0.3,34.2-8.3,33.7-34.4c-1.5-79.6-0.7-159.2-0.4-238.8c0-15.5-1.1-26.1-18.7-35.6
		c-34.2-18.4-33.9-55.5-0.3-74.9c37-21.5,16.8-54.3,16.3-80.6c-0.4-21.8-26.8-11.1-41.2-11.5c-56.8-1.3-113.7,0.2-170.5-0.8
		c-72.1-1.4-124.8-45.5-128.8-117.7c-6.7-122.3-7.2-245.1,0.3-367.4c4.5-72.2,56.7-116.1,129.7-116.4c228.7-0.9,457.3-1,686,0
		c72.7,0.3,124.4,44.6,128.7,117.5c7.2,122.3,7.4,245.1-0.1,367.4c-4.4,72.4-57.2,115.7-129.6,116.9c-61.9,1-123.8,1-185.7-0.1
		c-21.5-0.4-29.6,6.8-27.9,28.3c2,27.3-7,54.6,28.6,72.8c26.5,13.5,19.8,50.9-10.3,67.4c-15.1,8.2-18.3,16.9-18.2,31.9
		c0.5,82.2,1,164.3-0.3,246.4c-0.4,23.7,7.7,29.8,30.4,29.7c166.8-0.8,333.5-0.9,500.3,0.2c26.2,0.2,31.2-9.5,30.9-33
		c-1.2-83.4-0.9-166.8,0-250.2c0.2-18.7-5.9-28.6-22.2-38.6c-58.1-35.7-78.8-101.1-53.6-161.1c24.2-57.6,86.1-89.8,149.3-74.1
		c20.5,5.1,32.7,0.9,46.5-13.2c56.6-57.7,113.8-115,171.5-171.6c14.8-14.5,20.3-27,14.7-49.4c-16.4-66,20.1-129.3,82.7-151
		c61.6-21.4,128.4,5.7,157.3,63.7c30,60.2,12.6,128.5-46,165.8c-20.5,13-25.6,27-25.4,49.1c0.9,94.8,1.2,189.6-0.1,284.3
		c-0.3,25.6,5.4,40.1,31.2,51.6c58.9,26.2,89.3,75.8,97.3,139.2c3.6,28.8-6.2,52.1-36.4,56.9c-30.7,4.8-45.4-15-50.3-43.9
		c-9.6-56.1-37.4-82.5-85.3-82.5c-48,0-74.5,25-85.6,82.4c-5.5,28.4-19.1,49-50.3,43.9c-30.3-4.9-40.1-28.5-36.4-57
		c8.7-66.4,42.1-115.9,104.1-142.8c18-7.8,24.7-16.7,24.6-36.1c-0.8-101.1-0.3-202.2-0.6-303.3c0-9.4,4.6-22.3-7.5-26.9
		c-11.4-4.3-17.6,7.4-24.4,14.2c-59.1,58.8-117.8,118.1-177.2,176.6c-12.3,12.1-15.5,23.6-11.1,40.3c16.4,63.2-6.1,112-59.9,145.8
		c-16.8,10.6-20.5,22.9-20.4,40.5c0.4,82.2,1.1,164.3-0.3,246.4c-0.5,27.1,9.4,34.3,35.3,34c97.3-1.2,194.6,0.5,291.8-1.1
		c34.2-0.5,53.2,12,65,44.3c39.2,107.9,80,215.3,121.5,322.4c8.6,22.2,3.9,38.6-9.5,55.7c-27.1,34.9-53,70.8-80.6,105.3
		c-13.5,16.9-12.3,27.3,6.7,38.5c22.8,13.4,44.7,28.6,66.1,44.3c21,15.4,29,36.6,13.9,59.4c-15.8,23.9-38.4,26.4-62.7,11.2
		c-3.2-2-6.8-3.7-9.5-6.3c-68.5-64.7-151-75.4-241.3-70.9c-102.1,5.1-204.6,2.2-306.9,0.6c-34.4-0.6-64.3,5.5-91.4,27.5
		c-16.6,13.5-35.5,24.1-53.3,36c-5.3,3.5-11,6.4-15.8,10.4c-29.7,24.8-59.6-12.6-75.7-6.6c-27,10.2-48.9,28.5-74.1,5
		c-73.3-68.5-160.9-77.7-255.9-72.9c-98.3,5-197.1,2.3-295.6,0.4c-35.9-0.7-66.6,6.4-94.6,29.1c-17.6,14.2-37.6,25.6-56.5,38.2
		c-5.2,3.5-10.8,6.6-15.8,10.5c-29.3,23.1-56.8-18.8-72.2-9.8c-28,16.3-50.2,25.4-74.6,3.3c-70.4-64-152.8-77.3-244.9-71.8
		c-100.7,5.9-202.1,2.5-303.1,0.7c-35.7-0.6-66.5,5.9-95,28.3c-22.8,17.9-47.9,32.9-72.3,48.6c-22.5,14.5-44.4,12.5-60.2-9.3
		c-17.4-23.9-9.4-45.8,12.9-62.3c19.3-14.2,38.9-28.6,60-39.7c26.9-14.2,25-28.1,7.2-49.3c-26.8-31.9-50.6-66.2-76.2-99.1
		c-13.5-17.3-17.2-33.9-8.7-55.9c41.2-105.9,81.7-212,120.2-318.8c12.1-33.6,30.4-48.5,66.8-47.2c59.3,2.2,118.8-0.1,178.1,0.9
		c19.9,0.4,29.3-5.6,33.1-26C1115.9,1717.8,1126,1677.7,1136.5,1630.9z M1999.9,1869.5c0,0.6,0,1.2,0,1.7c-29.1,0-58.1,0-87.2,0
		c-327.2-0.6-654.3-1-981.5-2c-16.3-0.1-25,4.8-30.7,20.5c-25.8,71.1-52.1,142-79.6,212.5c-8.3,21.2-2.5,26.5,18.6,26.2
		c56.8-0.8,113.7-0.2,170.6-0.3c79.3,0,79.8,0,83.8-77.9c1.6-31.7,15.5-50.9,47.9-51.2c83.4-0.8,166.8-0.9,250.2,0.1
		c29.5,0.3,46.7,16.8,47,47.8c0.1,12.6,1.8,25.6-0.3,37.9c-6.8,38.4,10.6,44.4,45.5,44.3c334.8-1.4,669.6-0.8,1004.4-0.8
		c71.1,0,71.1,0,71.9-69.8c0.5-45.4,13.5-59.2,58.2-59.6c60.6-0.5,121.3-0.1,181.9-0.1c80.7,0,111.5-15.7,104.7,100.7
		c-1.2,20.1,3.9,29.7,26.8,29.3c75.8-1.2,151.6-1.1,227.4-0.1c26.6,0.4,25.2-9.6,17.4-29.5c-25.2-64.6-50-129.4-72.3-195.1
		c-9.2-27.1-22.6-35.2-51.4-35.2C2702.3,1869.9,2351.1,1869.5,1999.9,1869.5z M1997.6,1223.5c109.9,0,219.8,0.2,329.7-0.1
		c47.3-0.1,60.6-13.4,60.7-60.7c0.2-103.6,0.2-207.3,0-310.9c-0.1-48.1-12.9-61.2-59.9-61.3c-218.6-0.2-437.1-0.2-655.7,0
		c-47.8,0-60.5,12.8-60.7,60.5c-0.3,103.6-0.2,207.3,0,310.9c0.1,49,12.8,61.3,63.7,61.4C1782.8,1223.6,1890.2,1223.5,1997.6,1223.5
		z M838.3,2216.8c11.1,15.6,19.4,25.1,25.2,36c20.5,38.8,50.6,51,95.3,49.3c100.9-3.9,202.6,5.2,302.9-3
		c106.1-8.7,195.7,17.9,274.6,86.9c7.6,6.6,16.2,12.1,23.2,19.2c6.2,6.3,9.3,8.6,17.5,1c37.4-34.3,83.1-56.9,123.7-86.8
		c18.1-13.3,37.1-19,59.8-18.9c160.4,0.6,320.8,0.5,481.2,0.1c18.3,0,34.6,3.2,49.9,13.8c42.4,29.6,85.9,57.7,127.6,88.2
		c10.4,7.7,13.1,7.6,23.4-0.1c36.4-27.1,75.3-50.8,111.9-77.7c24.6-18.1,50.4-24.8,81-24.5c144,1.2,288,0.6,431.9,0.3
		c13.3,0,28.5,5,38.8-8.6c17.8-23.6,35.1-47.5,55.5-75.2C2385,2216.8,1615,2216.8,838.3,2216.8z M1244.1,1071.1
		c-138.9,139.4-277.6,278.9-416.9,417.7c-18.1,18-6.2,23.6,7.9,32.6c111.5,71.8,266.6,59.3,369-30.3
		C1327.1,1383.4,1347,1183.8,1244.1,1071.1z M1956.2,1632.9c0,32.8-0.5,65.6,0.1,98.3c1.1,59.9-10.9,50.9,55,53
		c23.9,0.8,33.1-5,32.6-30.9c-1.6-80.7-1.3-161.4,0-242.1c0.4-22.7-5.4-33.4-29.3-29.8c-7.4,1.1-15.2,1.1-22.6,0
		c-27.1-4.2-38.6,4.2-36.4,34.2C1958.4,1554.6,1956.3,1593.8,1956.2,1632.9z M2001.9,1308.8c-33.2-7-50.2-0.3-47.8,38.7
		c2,32.3,1.1,55.2,45.1,50.4c29-3.2,50.1-1.3,46.3-41.4C2042.6,1325.4,2047.2,1295.2,2001.9,1308.8z M1312.8,1783.9
		c-32.5-46.1-60.1-85.2-91.7-130.1c-9.4,40.4-16.6,72.3-24.3,104.1c-5,20.6,3.3,27.1,23.3,26.3
		C1247.7,1783.1,1275.5,1783.9,1312.8,1783.9z M2733.4,2085.4c-22.6,0-45.3,0.6-67.9-0.2c-17.6-0.6-20.1,8.9-20.3,23.6
		c-0.2,16.2,8.4,18.4,21.3,18.3c44-0.3,88-0.7,131.9,0.2c16.6,0.4,21.4-5.3,21.5-21.6c0.1-17.4-7.3-21.2-22.6-20.6
		C2776.1,2086.1,2754.7,2085.4,2733.4,2085.4z M1267.2,2127.1c20.1,0,40.2-0.1,60.3,0c14.2,0.1,27.2,1.6,27.2-20.2
		c0-20.5-10.8-21.8-26.2-21.7c-41.5,0.4-82.9,0.7-124.4-0.1c-16.9-0.4-24.8,3.3-24.6,22.6c0.3,18.5,9.3,19.9,23.5,19.5
		C1224.4,2126.6,1245.8,2127.1,1267.2,2127.1z M879,1093.9c-2.3-25.6-15.9-43.1-42.1-43.8c-25.9-0.7-42.8,14.3-43.9,41.4
		c-1.1,27.3,14.5,43.4,40.7,44.3C859.8,1136.7,874.5,1120.3,879,1093.9z M3121.5,1005.1c28.5,0.4,42.8-16.5,42.6-41.9
		c-0.2-25.5-16.3-42.8-43.1-42.6c-26.6,0.2-43,17.1-42.9,42.8C3078.3,989.1,3094.4,1004.3,3121.5,1005.1z M2775.9,1351.7
		c-2.5-25.8-17.3-42.7-42.9-42.8c-25.4-0.1-42.9,15.8-42.9,42.6c-0.1,26.6,15.2,41.7,42.5,42.1
		C2760.1,1393.9,2773.7,1378.9,2775.9,1351.7z"/>
	<path class="st2" d="M1515.6,2665.2c-0.2,4.6,0.7,8-0.6,9.6c-31,37-0.6,72.8,1,109.2c1.5,34.1,29.2,46.2,49.2,53.3
		c13.4,4.8,43.1-11.5,50.9-36.3c8.3-26.4,13.2-54.1,22.9-79.9c5.7-15.2-4.9-20.1-10.2-29.1c-18.1-30.7-1.4-67.2,33.2-64.7
		c26.9,1.9,38.3-11.5,52.4-27.9c22.6-26.2,56.6-42.4,53.3-88.1c-1.8-24.3,37.9-37.9,59.7-20.9c17,13.3,30,11.9,47.4,5.1
		c16.3-6.3,33.7-10.5,51-13.6c17.1-3.1,28.2-8.9,37-26.5c15.4-31,56.1-35.4,69.8-6.4c13,27.5,32.9,30.1,56.2,35.4
		c32.6,7.3,61.6,25.2,98,1.3c20-13.1,48.8,7,47.2,32.8c-2,32.5,15.6,47.2,35.4,64.6c23.4,20.6,37.5,50.8,79.5,46.1
		c24.4-2.8,40.9,38,23.5,58.4c-17.3,20.3-9.7,35.4-3.5,54.4c5.9,17.9,10.1,36.5,13.1,55.1c4.7,28.9,35.4,27.6,49.7,45.1
		c12.5-19.1,45.6-14.9,48.7-46.2c2.1-21,9.5-41.8,16.4-62c5.1-15,6.1-26.1-4-41.3c-21.2-31.9-2.6-67.1,34.8-65.8
		c21,0.8,32.1-6.9,44-21.2c12.1-14.4,26.1-27.6,40.6-39.6c11.6-9.6,18.6-17.9,14.7-34.9c-4-17.2,3.9-32,19.7-41.6
		c17.4-10.7,35-9.3,48.9,4.1c11.4,11.1,20.7,9.1,33.6,4.6c20.1-7,41-12.4,61.9-16.7c15.7-3.2,25.5-9,33.7-24.7
		c18.7-35.9,58-35.8,75.9,0.6c8.3,16.9,19.3,20.7,34.3,24.1c18.4,4.2,36.9,8.7,54.7,14.6c15.9,5.3,27.6,7.6,44.1-4.5
		c29.8-21.9,67-0.9,64.3,36.5c-1.6,21.9,7.8,32,21.5,43.7c11.5,9.8,22.9,20.2,32.2,31.9c12.3,15.6,23.7,24.6,46.7,23.2
		c35.3-2.1,56,34.3,35.8,62.6c-12.4,17.4-11.9,30.4-4.9,47.7c5.7,13.9,10.8,28.7,12.5,43.5c2.5,21.5,8.8,35.4,30.9,46.3
		c29.7,14.6,29.4,56.2-0.4,70.4c-22.5,10.7-27.4,25.3-30.5,46.3c-5.2,34.9-29.4,66.4-2.7,105.8c13.2,19.4-7.4,48.3-33.4,46.6
		c-30.8-2-45.2,13.9-61.8,33c-21.2,24.3-51.6,39.6-48.2,82.1c2,24.9-36.3,39.7-59,23.5c-18.6-13.3-32.9-11.7-51.7-4.4
		c-16.3,6.3-34.1,9-51.3,12.8c-14.9,3.3-25.6,7.8-33.6,24.7c-16.2,34.4-57.6,35.7-74,2.2c-9.4-19.1-22.2-24-39.4-27.9
		c-17.2-3.9-34.5-7.8-51-13.8c-15.9-5.8-27.4-7.8-43.8,4.2c-30,22-67.3,1.1-64.6-36.1c1.4-19.8-4.6-29.9-18.2-41
		c-13.6-11.1-26.7-23.5-37.7-37.2c-11.8-14.7-22.8-22.2-43.9-21.1c-35.4,1.9-56.1-33.1-36.5-62.2c11.7-17.5,11.3-30.3,4.4-47.9
		c-6.9-17.5-13.1-36.3-13.9-54.8c-1.5-33.4-36-30.5-49.5-49.8c-16.6,17.8-49.2,18.5-51.9,52c-1.5,18.5-8.2,36.9-14.3,54.7
		c-5.4,15.9-7.9,27.5,4.5,43.9c21.5,28.4,2.5,65.9-32.6,63.8c-24.7-1.5-36.6,9.1-49.9,25.2c-22.6,27.6-59.4,43.8-55.6,91
		c1.9,22.9-36.6,38.1-56.5,22.4c-21.2-16.7-37.9-10.9-58.2-3.5c-14.1,5.1-29.2,7.9-44.1,10.6c-16.8,3.1-27.9,9-36.6,26.7
		c-15.6,32-58.1,34.1-72.2,2.8c-10.6-23.4-26.7-26.6-46.2-31c-14.7-3.3-29.6-6.7-43.7-12c-16.9-6.3-29.7-8.9-47.2,4.3
		c-26.6,20-64.3,1.3-62.3-31.2c1.7-27.8-10.6-42.5-29.8-55.2c-21.6-14.2-27.5-47.1-58-49.8c-57.5-5.1-69.4-24.7-41.2-72.9
		c5.6-9.6,3.5-15.6,1-24.1c-6.8-22.9-15.1-45.8-18.3-69.3c-4.3-31.4-35.8-30.7-50.9-48.6c-13.3,19.5-48.4,16.3-49.6,49.7
		c-0.6,16-6.4,32.2-11.9,47.6c-7.2,20.4-12.5,36.8,3.8,58.4c17.4,23.1-1.8,60.5-29.8,58.4c-30.8-2.3-45.2,14.1-62.1,32.8
		c-21.7,23.9-51.5,39.7-48.5,81.8c1.8,25.6-36.4,41.1-58.2,23.8c-20.3-16-35.7-9.8-54.7-3.4c-15.5,5.2-31.8,7.9-47.7,11.7
		c-14.4,3.4-25.8,6.3-34.1,23.7c-17.2,36.5-58.7,37.1-75.7,1.2c-8-17-18.6-21.3-33.5-24.6c-17.2-3.9-34.9-6.8-51.3-13
		c-18.2-6.9-31.8-11.1-50.8,3.6c-24.6,19-63.4,1.1-61.5-28.7c2-30.8-13.3-44.9-32.4-61.8c-24.3-21.4-39.9-51.8-82.3-48.5
		c-24.6,1.9-40-37.5-22.8-58.6c15.3-18.8,11-33.2,4.6-51.3c-5.4-15.4-10.3-31.3-12.6-47.4c-2.5-17.4-8-28.5-25.4-37.6
		c-34.2-17.8-35.3-57.5-2-74.4c19-9.6,24.9-21.2,27.6-40c2.5-17.3,8-34.4,13.9-51c5.8-16.1,6.6-28-5-44.3
		c-20.5-28.6-0.8-64.9,34.3-63.4c22.4,1,34.8-6.5,47.2-22.5c10-12.8,22.2-24.3,34.9-34.6c13.4-10.9,20.5-20.6,19.2-40.7
		c-2.6-39.4,34.4-59.1,66.9-36.1c13.9,9.9,23.3,9.2,37.2,4.4c20.2-6.9,41.2-11.5,62-16.4c13.9-3.3,23.3-8,30.9-23
		c18.5-36.6,58.1-37.7,75.8-1.8c9,18.3,21.1,22,37.2,25.7c18.4,4.2,36.7,9,54.7,14.8c14.6,4.7,25.2,6.9,40.6-4.4
		c30.4-22.4,68-2.5,65.4,34.4c-1.5,21.4,5.9,32.2,20.4,43.7c11.8,9.4,23.1,20,32.2,31.9c13,16.9,25.6,27.1,50,24.5
		C1500,2624.2,1513.3,2642.5,1515.6,2665.2z M2301.9,2859.2c-0.1-161.6-137.2-298.3-300.1-299.2c-166.5-0.9-303.3,135.4-304,303
		c-0.7,163,138.2,301.4,302.1,301.3C2166.4,3164.1,2302.1,3027.1,2301.9,2859.2z M3161.4,2862.5c0-169.6-132.8-302.8-301.7-302.4
		c-162.2,0.4-298.3,137.1-298.7,300c-0.4,168,134.9,304.2,302.2,304.2C3029.9,3164.3,3161.4,3031.3,3161.4,2862.5z M838.2,2860.4
		c0,171.7,131.3,304.3,301,303.9c163.1-0.4,299.3-136.9,299.5-300.2c0.2-166.7-134.7-303.8-299.4-304.1
		C971.9,2559.7,838.3,2693,838.2,2860.4z"/>
	<path class="st3" d="M1999.9,1869.5c351.2,0,702.4,0.4,1053.6-0.8c28.8-0.1,42.2,8.1,51.4,35.2c22.3,65.6,47.1,130.4,72.3,195.1
		c7.8,19.9,9.2,29.9-17.4,29.5c-75.8-1-151.6-1.1-227.4,0.1c-23,0.4-28-9.2-26.8-29.3c6.8-116.4-24.1-100.7-104.7-100.7
		c-60.6,0-121.3-0.4-181.9,0.1c-44.7,0.4-57.7,14.2-58.2,59.6c-0.8,69.8-0.8,69.8-71.9,69.8c-334.8,0-669.6-0.6-1004.4,0.8
		c-34.9,0.1-52.3-5.9-45.5-44.3c2.2-12.2,0.5-25.2,0.3-37.9c-0.3-31-17.5-47.4-47-47.8c-83.4-1-166.8-0.8-250.2-0.1
		c-32.4,0.3-46.3,19.5-47.9,51.2c-4,77.9-4.5,77.9-83.8,77.9c-56.9,0-113.7-0.5-170.6,0.3c-21.1,0.3-26.8-5-18.6-26.2
		c27.4-70.5,53.8-141.4,79.6-212.5c5.7-15.7,14.4-20.5,30.7-20.5c327.2,1,654.3,1.5,981.5,2c29.1,0.1,58.1,0,87.2,0
		C1999.9,1870.7,1999.9,1870.1,1999.9,1869.5z M1997.3,1998.4c28.4-0.2,44.2-15.6,45.1-41c0.9-25.4-14.1-42.8-41.1-43.7
		c-27-0.9-43.1,15.6-44,40.9C1956.4,1980,1971.2,1996.4,1997.3,1998.4z M1826.3,1998.5c27.2-1.5,43.6-16.2,43.6-42.6
		s-16.5-42.4-43.4-42.1c-25.1,0.3-40.2,15.5-41,40.5C1784.6,1981.1,1799.2,1996.4,1826.3,1998.5z M2171.6,1998.5
		c27.8-1.7,43.1-16.4,42.6-43.4c-0.4-24.8-14.7-40.7-40.1-41.4c-27-0.8-43.6,15.1-44.4,41.3
		C2129,1981.6,2145.3,1996.3,2171.6,1998.5z"/>
	<path class="st3" d="M1997.6,1223.5c-107.4,0-214.8,0.1-322.2-0.1c-50.9-0.1-63.6-12.3-63.7-61.4c-0.2-103.6-0.2-207.3,0-310.9
		c0.1-47.7,12.9-60.5,60.7-60.5c218.6-0.2,437.1-0.2,655.7,0c47,0,59.8,13.2,59.9,61.3c0.2,103.6,0.2,207.3,0,310.9
		c-0.1,47.3-13.4,60.6-60.7,60.7C2217.4,1223.7,2107.5,1223.5,1997.6,1223.5z M1955.1,1007.9c0.4-71.1-55.2-128.3-125.8-129.3
		c-71.4-1-131.4,58.2-131,129.3c0.4,69.6,58.6,127,129,127.1C1898.4,1134.9,1954.7,1078.9,1955.1,1007.9z M2172.2,1134.9
		c70.5,0.2,128.5-56.7,129.2-126.8c0.7-71-59.2-130.6-130.6-129.8c-70,0.8-126.6,58.8-126.2,129.3
		C2044.9,1078.6,2101.1,1134.7,2172.2,1134.9z"/>
	<path class="st4" d="M838.3,2216.8c776.7,0,1546.6,0,2323.4,0c-20.4,27.7-37.7,51.6-55.5,75.2c-10.2,13.6-25.5,8.6-38.8,8.6
		c-144,0.3-288,0.9-431.9-0.3c-30.6-0.3-56.3,6.4-81,24.5c-36.6,26.9-75.5,50.6-111.9,77.7c-10.4,7.7-13,7.8-23.4,0.1
		c-41.7-30.6-85.1-58.7-127.6-88.2c-15.3-10.7-31.6-13.9-49.9-13.8c-160.4,0.4-320.8,0.5-481.2-0.1c-22.6-0.1-41.6,5.6-59.8,18.9
		c-40.6,29.8-86.3,52.5-123.7,86.8c-8.2,7.6-11.3,5.4-17.5-1c-7-7.1-15.7-12.6-23.2-19.2c-78.9-69-168.5-95.7-274.6-86.9
		c-100.4,8.3-202-0.9-302.9,3c-44.7,1.7-74.8-10.5-95.3-49.3C857.8,2241.9,849.4,2232.5,838.3,2216.8z"/>
	<path class="st3" d="M1244.1,1071.1c102.9,112.7,83,312.3-40,420c-102.3,89.6-257.5,102.2-369,30.3c-14.1-9.1-26-14.6-7.9-32.6
		C966.5,1349.9,1105.2,1210.4,1244.1,1071.1z"/>
	<path class="st3" d="M1956.3,1632.9c0-39.1,2.2-78.3-0.7-117.2c-2.2-30,9.3-38.4,36.4-34.2c7.4,1.1,15.2,1.1,22.6,0
		c23.9-3.6,29.7,7.1,29.3,29.8c-1.3,80.7-1.6,161.4,0,242.1c0.5,25.9-8.7,31.7-32.6,30.9c-65.9-2.1-54,6.9-55-53
		C1955.8,1698.4,1956.2,1665.7,1956.3,1632.9z"/>
	<path class="st4" d="M2001.9,1308.8c45.3-13.5,40.6,16.6,43.6,47.7c3.8,40.2-17.3,38.3-46.3,41.4c-44,4.8-43.1-18.1-45.1-50.4
		C1951.7,1308.4,1968.8,1301.8,2001.9,1308.8z"/>
	<path class="st5" d="M2733.4,2085.4c21.4,0,42.8,0.7,64.1-0.2c15.3-0.6,22.7,3.2,22.6,20.6c-0.1,16.3-5,21.9-21.5,21.6
		c-44-0.9-88-0.5-131.9-0.2c-12.9,0.1-21.6-2.1-21.3-18.3c0.2-14.8,2.6-24.2,20.3-23.6C2688.1,2086,2710.8,2085.4,2733.4,2085.4z"/>
	<path class="st5" d="M1267.2,2127.1c-21.4,0-42.7-0.5-64.1,0.1c-14.2,0.4-23.2-1-23.5-19.5c-0.3-19.3,7.6-23,24.6-22.6
		c41.4,0.9,82.9,0.5,124.4,0.1c15.4-0.1,26.2,1.2,26.2,21.7c0,21.8-13,20.3-27.2,20.2C1307.4,2127,1287.3,2127.1,1267.2,2127.1z"/>
	<path class="st5" d="M879,1093.9c-4.4,26.5-19.1,42.8-45.3,41.9c-26.2-0.9-41.8-17-40.7-44.3c1.1-27.1,18-42.2,43.9-41.4
		C863.1,1050.8,876.6,1068.2,879,1093.9z"/>
	<path class="st5" d="M3121.5,1005.1c-27-0.8-43.2-16-43.3-41.7c-0.1-25.7,16.3-42.6,42.9-42.8c26.8-0.2,42.9,17,43.1,42.6
		C3164.3,988.6,3150,1005.5,3121.5,1005.1z"/>
	<path class="st5" d="M2775.9,1351.7c-2.3,27.2-15.9,42.2-43.4,41.9c-27.3-0.3-42.5-15.5-42.5-42.1c0.1-26.8,17.5-42.7,42.9-42.6
		C2758.7,1309,2773.5,1325.9,2775.9,1351.7z"/>
	<path class="st6" d="M2301.9,2859.2c0.1,167.9-135.5,304.8-302.1,305c-163.9,0.2-302.7-138.3-302.1-301.3
		c0.7-167.6,137.5-303.9,304-303C2164.7,2560.9,2301.8,2697.6,2301.9,2859.2z M1999.5,3035.6c93.5,0.2,174.3-80.7,174.2-174.2
		c-0.1-91.8-78.8-171.3-171.5-173.4c-92.4-2.1-175.2,79.1-176.1,172.7C1825.3,2953.9,1906.1,3035.4,1999.5,3035.6z"/>
	<path class="st6" d="M3161.4,2862.5c0,168.8-131.5,301.9-298.3,301.8c-167.3,0-302.6-136.2-302.2-304.2
		c0.4-162.9,136.6-299.7,298.7-300C3028.6,2559.7,3161.4,2692.8,3161.4,2862.5z M2689.8,2862.7c0.3,94.5,79.6,173.1,174.4,172.9
		c92.1-0.2,175-84.7,172.6-175.8c-2.4-90.9-85.4-172.8-174-171.8C2768.2,2689.1,2689.5,2768.6,2689.8,2862.7z"/>
	<path class="st6" d="M838.2,2860.4c0-167.4,133.6-300.7,301.1-300.4c164.7,0.3,299.7,137.4,299.4,304.1
		c-0.2,163.2-136.5,299.8-299.5,300.2C969.5,3164.7,838.2,3032.1,838.2,2860.4z M1309.9,2863.4c0.6-93.9-78.2-174-172.6-175.4
		c-88.3-1.4-171.7,80.7-174.3,171.5c-2.6,91.9,79,175.4,172.1,176C1230.4,3036.2,1309.3,2958.5,1309.9,2863.4z"/>
	<path class="st1" d="M1997.3,1998.4c-26-2-40.9-18.4-40-43.8c0.9-25.3,17-41.8,44-40.9c26.9,0.9,41.9,18.3,41.1,43.7
		C2041.5,1982.8,2025.7,1998.2,1997.3,1998.4z"/>
	<path class="st1" d="M1826.3,1998.5c-27.2-2.2-41.7-17.4-40.8-44.3c0.8-25,15.8-40.2,41-40.5c26.9-0.3,43.4,15.8,43.4,42.1
		C1869.9,1982.3,1853.6,1997,1826.3,1998.5z"/>
	<path class="st1" d="M2171.6,1998.5c-26.3-2.2-42.7-16.9-41.8-43.5c0.8-26.2,17.4-42.1,44.4-41.3c25.3,0.8,39.7,16.7,40.1,41.4
		C2214.7,1982.1,2199.4,1996.8,2171.6,1998.5z"/>
	<path class="st1" d="M1955.1,1007.9c-0.4,71.1-56.7,127-127.8,127c-70.4-0.1-128.6-57.4-129-127.1c-0.4-71.1,59.6-130.3,131-129.3
		C1899.9,879.5,1955.5,936.7,1955.1,1007.9z M1831.5,1049.6c22.8-4.6,39.8-18.7,38-45.1c-1.7-26-18.4-41-45.4-39.3
		c-25.3,1.7-38.7,17.5-38.3,42.2C1786.2,1034.5,1802.3,1047.8,1831.5,1049.6z"/>
	<path class="st1" d="M2172.2,1134.9c-71.1-0.2-127.3-56.3-127.7-127.3c-0.3-70.5,56.3-128.5,126.2-129.3
		c71.4-0.8,131.4,58.8,130.6,129.8C2300.6,1078.2,2242.7,1135.1,2172.2,1134.9z M2169.8,964.5c-25.5,3.5-41.4,18.5-39.6,44.8
		c1.7,25.9,18.6,41.2,45.5,39.4c25.1-1.7,38.8-17.5,38.2-42.3C2213.2,979.5,2197.5,965.7,2169.8,964.5z"/>
	<path class="st1" d="M1999.5,3035.6c-93.4-0.2-174.2-81.7-173.4-174.9c0.8-93.6,83.7-174.8,176.1-172.7
		c92.7,2.1,171.4,81.7,171.5,173.4C2173.8,2954.9,2092.9,3035.7,1999.5,3035.6z M1999,2947.6c48.8,0.4,86-36.6,86-85.5
		c0-47.2-35.6-84-82.5-85.1c-49-1.2-87.1,34.9-87.9,83.4C1913.8,2909.2,1950.5,2947.2,1999,2947.6z"/>
	<path class="st1" d="M2689.8,2862.7c-0.3-94,78.4-173.6,172.9-174.7c88.6-1,171.6,80.9,174,171.8c2.4,91.2-80.5,175.6-172.6,175.8
		C2769.4,3035.8,2690.1,2957.2,2689.8,2862.7z M2948,2863.8c0.6-48.8-36.3-86.6-84.8-86.8c-48.4-0.2-86.9,37.7-86.9,85.5
		c0,46.1,37.1,83.8,83.7,85.1C2908.1,2949,2947.3,2911.7,2948,2863.8z"/>
	<path class="st1" d="M1309.9,2863.4c-0.6,95.1-79.5,172.9-174.8,172.2c-93.1-0.7-174.7-84.1-172.1-176
		c2.5-90.8,86-172.9,174.3-171.5C1231.7,2689.4,1310.5,2769.4,1309.9,2863.4z M1135.1,2777c-48.3,0.8-84.8,39.5-83.3,88.2
		c1.5,46.6,38.9,82.6,85.7,82.3c48.3-0.3,86.6-38.8,86-86.6C1222.8,2813.2,1183.8,2776.1,1135.1,2777z"/>
	<path class="st7" d="M1831.5,1049.6c-29.2-1.8-45.3-15.2-45.7-42.2c-0.4-24.8,13-40.6,38.3-42.2c27.1-1.8,43.7,13.3,45.4,39.3
		C1871.3,1031,1854.3,1045,1831.5,1049.6z"/>
	<path class="st7" d="M2169.8,964.5c27.8,1.2,43.5,15,44.1,41.8c0.6,24.9-13.2,40.6-38.2,42.3c-26.9,1.8-43.7-13.4-45.5-39.4
		C2128.4,983,2144.3,968,2169.8,964.5z"/>
	<path class="st4" d="M1999,2947.6c-48.5-0.4-85.2-38.3-84.3-87.2c0.8-48.5,38.9-84.7,87.9-83.4c46.9,1.2,82.5,37.9,82.5,85.1
		C2085,2910.9,2047.8,2948,1999,2947.6z"/>
	<path class="st4" d="M2948,2863.8c-0.6,47.9-39.8,85.2-88.1,83.8c-46.6-1.4-83.6-39.1-83.7-85.1c0-47.8,38.5-85.7,86.9-85.5
		C2911.6,2777.2,2948.6,2815,2948,2863.8z"/>
	<path class="st4" d="M1135.1,2777c48.7-0.8,87.7,36.2,88.3,83.9c0.6,47.7-37.7,86.3-86,86.6c-46.8,0.3-84.2-35.7-85.7-82.3
		C1050.2,2816.5,1086.8,2777.8,1135.1,2777z"/>
</g>
</svg>
