<?xml version="1.0" encoding="utf-8"?>
<!-- Generator: Adobe Illustrator 26.1.0, SVG Export Plug-In . SVG Version: 6.00 Build 0)  -->
<svg version="1.1" id="Layer_1" xmlns="http://www.w3.org/2000/svg" xmlns:xlink="http://www.w3.org/1999/xlink" x="0px" y="0px"
	 viewBox="0 0 4000 4000" style="enable-background:new 0 0 4000 4000;" xml:space="preserve">
<style type="text/css">
	.st0{fill:#FFFFFF;}
	.st1{fill:#390075;}
	.st2{opacity:0.3;}
	.st3{fill:#6BD6F0;}
	.st4{opacity:0.5;}
	.st5{opacity:0.35;}
	.st6{fill:#6B184E;}
	.st7{fill:#B2223D;}
	.st8{fill:#945CC6;}
	.st9{fill:#102770;}
	.st10{fill:#B8C5D3;}
	.st11{opacity:0.6;}
	.st12{fill:#999999;}
	.st13{fill:#81EF36;}
	.st14{fill:#DBDBDB;}
	.st15{fill:#FFCE00;}
</style>
<circle class="st0" cx="2000" cy="2000" r="2000"/>
<g>
	<g>
		<g>
			<circle class="st0" cx="1408.7" cy="3001.1" r="190.3"/>
		</g>
		<g>
			<path class="st1" d="M1408.7,3194.4c-51.6,0-100.2-20.1-136.7-56.6c-36.5-36.5-56.6-85.1-56.6-136.7
				c0-51.6,20.1-100.2,56.6-136.7c36.5-36.5,85.1-56.6,136.7-56.6c51.6,0,100.2,20.1,136.7,56.6c36.5,36.5,56.6,85.1,56.6,136.7
				c0,51.6-20.1,100.2-56.6,136.7l0,0C1508.8,3174.3,1460.3,3194.4,1408.7,3194.4z M1408.7,2813.9c-50,0-97,19.5-132.4,54.8
				c-35.4,35.4-54.8,82.4-54.8,132.4s19.5,97,54.8,132.4c35.4,35.4,82.4,54.8,132.4,54.8c50,0,97-19.5,132.4-54.8l0,0
				c35.4-35.4,54.8-82.4,54.8-132.4s-19.5-97-54.8-132.4C1505.7,2833.4,1458.7,2813.9,1408.7,2813.9z"/>
		</g>
	</g>
	<g class="st2">
		<g>
			<path class="st1" d="M1226.6,3056.2c8.9,17.7,20.6,34.3,35.4,49.1c74.3,74.3,194.8,74.3,269.1,0c51.4-51.4,67.2-124.8,47.5-189.8
				c2.2,4.5,4.3,9,6.2,13.6c-7-17.1-16.5-33.4-28.7-48.3c13.1,61.1-4,127.3-51.4,174.7c-74.3,74.3-194.8,74.3-269.1,0
				c-4.5-4.5-8.8-9.2-12.8-14.1c2.6,12.2,6.5,24.3,11.6,35.9C1231.3,3070.3,1228.7,3063.3,1226.6,3056.2z"/>
		</g>
	</g>
	<g>
		<g>
			<path class="st1" d="M1408.7,3210.8c-56,0-108.7-21.8-148.3-61.4c-39.6-39.6-61.4-92.3-61.4-148.3s21.8-108.7,61.4-148.3
				s92.3-61.4,148.3-61.4c56,0,108.7,21.8,148.3,61.4c39.6,39.6,61.4,92.3,61.4,148.3s-21.8,108.7-61.4,148.3l0,0
				C1517.3,3189,1464.7,3210.8,1408.7,3210.8z M1408.7,2830.3c-45.6,0-88.5,17.8-120.8,50c-32.3,32.3-50,75.2-50,120.8
				c0,45.6,17.8,88.5,50,120.8c32.3,32.3,75.2,50,120.8,50c45.6,0,88.5-17.8,120.8-50l0,0c32.3-32.3,50-75.2,50-120.8
				c0-45.6-17.8-88.5-50-120.8C1497.2,2848.1,1454.3,2830.3,1408.7,2830.3z"/>
		</g>
	</g>
	<g>
		<g>
			<circle class="st0" cx="2586.7" cy="3001.1" r="190.3"/>
		</g>
		<g>
			<path class="st1" d="M2586.7,3194.3c-49.5,0-99-18.8-136.7-56.5l0,0c-75.4-75.4-75.4-198,0-273.4c75.4-75.4,198-75.4,273.4,0
				c75.4,75.4,75.4,198,0,273.4C2685.7,3175.5,2636.2,3194.3,2586.7,3194.3z M2454.3,3133.5c73,73,191.8,73,264.8,0
				c73-73,73-191.8,0-264.8c-73-73-191.8-73-264.8,0C2381.3,2941.7,2381.3,3060.5,2454.3,3133.5L2454.3,3133.5z"/>
		</g>
	</g>
	<g class="st2">
		<g>
			<path class="st1" d="M2773.8,3056.2c-8.9,17.7-20.6,34.3-35.4,49.1c-74.3,74.3-194.8,74.3-269.1,0
				c-51.4-51.4-67.2-124.8-47.5-189.8c-2.2,4.5-4.3,9-6.2,13.6c7-17.1,16.5-33.4,28.7-48.3c-13.1,61.1,4,127.3,51.4,174.7
				c74.3,74.3,194.8,74.3,269.1,0c4.5-4.5,8.8-9.2,12.8-14.1c-2.6,12.2-6.5,24.3-11.6,35.9
				C2769.1,3070.3,2771.7,3063.3,2773.8,3056.2z"/>
		</g>
	</g>
	<g>
		<g>
			<path class="st1" d="M2586.7,3210.7c-53.7,0-107.4-20.4-148.3-61.3l0,0c-81.8-81.8-81.8-214.8,0-296.6
				c81.8-81.8,214.8-81.8,296.6,0c81.8,81.8,81.8,214.8,0,296.6C2694.1,3190.3,2640.4,3210.7,2586.7,3210.7z M2465.9,3121.9
				c66.6,66.6,175,66.6,241.6,0c66.6-66.6,66.6-175,0-241.6c-66.6-66.6-175-66.6-241.6,0C2399.3,2946.9,2399.3,3055.3,2465.9,3121.9
				L2465.9,3121.9z"/>
		</g>
	</g>
	<g class="st2">
		<g>
			<path class="st3" d="M3014.9,1569.5c0,77.2-8.6,152.4-24.9,224.6c-272.6-65.8-616.4-105.1-989.9-105.1s-717.4,39.3-989.9,105.1
				c-16.3-72.2-24.9-147.4-24.9-224.6c0-560.5,454.4-1014.9,1014.9-1014.9S3014.9,1008.9,3014.9,1569.5z"/>
		</g>
	</g>
	<g class="st4">
		<g>
			<path class="st0" d="M2000,609.2c551.3,0,1000,439.6,1014.5,987.5c0.2-9.1,0.4-18.1,0.4-27.2c0-560.5-454.4-1014.9-1014.9-1014.9
				S985.1,1008.9,985.1,1569.5c0,9.1,0.1,18.2,0.4,27.2C1000,1048.9,1448.7,609.2,2000,609.2z"/>
		</g>
	</g>
	<g>
		<g>
			<path class="st1" d="M995.4,1817.6l-4.4-19.2c-16.9-74.6-25.4-151.6-25.4-228.9c0-570.4,464-1034.4,1034.3-1034.4
				s1034.3,464,1034.3,1034.4c0,77.3-8.6,154.3-25.4,228.9l-4.4,19.2l-19.2-4.6c-283.4-68.4-624.1-104.5-985.4-104.5
				c-361.3,0-702,36.1-985.4,104.5L995.4,1817.6z M2000,1669.6c356.1,0,692.7,34.9,975.1,101c13.5-65.8,20.3-133.3,20.3-201.1
				c0-548.9-446.6-995.5-995.4-995.5s-995.4,446.6-995.4,995.5c0,67.8,6.8,135.3,20.3,201.1
				C1307.2,1704.5,1643.9,1669.6,2000,1669.6z"/>
		</g>
	</g>
	<g>
		<g>
			<path class="st1" d="M995.4,1817.6l-4.4-19.2c-16.9-74.6-25.4-151.6-25.4-228.9c0-570.4,464-1034.4,1034.3-1034.4
				s1034.3,464,1034.3,1034.4c0,77.3-8.6,154.3-25.4,228.9l-4.4,19.2l-19.2-4.6c-283.4-68.4-624.1-104.5-985.4-104.5
				c-361.3,0-702,36.1-985.4,104.5L995.4,1817.6z M2000,1669.6c356.1,0,692.7,34.9,975.1,101c13.5-65.8,20.3-133.3,20.3-201.1
				c0-548.9-446.6-995.5-995.4-995.5s-995.4,446.6-995.4,995.5c0,67.8,6.8,135.3,20.3,201.1
				C1307.2,1704.5,1643.9,1669.6,2000,1669.6z"/>
		</g>
	</g>
	<g>
		<g>
			<path class="st0" d="M2998.6,2535c0,81.5-28.1,159.2-79.1,229.9c-151.9,210.6-506.5,358.3-919.5,358.3
				c-413.1,0-767.6-147.7-919.5-358.3c-50.9-70.7-79.1-148.3-79.1-229.9c0-324.9,447.1-588.3,998.6-588.3
				C2551.5,1946.7,2998.6,2210.1,2998.6,2535z"/>
		</g>
	</g>
	<g class="st2">
		<g>
			<path class="st1" d="M1101,2748.8c161.7,196.4,503.4,331.9,898.9,331.9c395.5,0,737.2-135.5,898.9-331.9c0,0,0,0,0,0
				c-161.7,131.9-503.5,222.9-898.9,222.9C1604.4,2971.7,1262.7,2880.7,1101,2748.8C1101,2748.8,1101,2748.8,1101,2748.8z"/>
		</g>
	</g>
	<g class="st5">
		<g>
			<path class="st6" d="M1002.3,2559.9c2.5,34.8,10,68.8,22.3,101.7c-15.2-27.4-23.2-55.9-23.2-85.1
				C1001.4,2571,1001.7,2565.4,1002.3,2559.9z"/>
		</g>
		<g>
			<path class="st1" d="M1021.9,2663.1c-15.6-28.3-23.6-57.4-23.6-86.5c0-5.7,0.3-11.4,0.9-17l6.1,0.1c2.4,34.1,9.9,68.1,22.1,100.9
				L1021.9,2663.1z"/>
		</g>
	</g>
	<g class="st5">
		<g>
			<path class="st6" d="M2998.6,2576.6c0,29.2-8,57.7-23.2,85.1c12.3-33,19.8-67,22.3-101.7
				C2998.3,2565.4,2998.6,2571,2998.6,2576.6z"/>
		</g>
		<g>
			<path class="st1" d="M2978.1,2663.1l-5.5-2.5c12.3-32.8,19.7-66.8,22.1-100.9l6.1-0.1c0.6,5.6,0.9,11.3,0.9,17
				C3001.6,2605.7,2993.7,2634.9,2978.1,2663.1z"/>
		</g>
	</g>
	<g>
		<g>
			<g>
				<path class="st7" d="M3603.3,2309.7c0,68.3-45.2,133.3-126.9,192.4c-243.9,176.3-813.1,364.3-1476.3,364.3
					c-663.3,0-1232.5-188-1476.3-364.3c-81.7-59.1-126.9-124.1-126.9-192.4c0-272,717.8-492.4,1603.3-492.4
					C2885.4,1817.3,3603.3,2037.8,3603.3,2309.7z"/>
			</g>
		</g>
		<g>
			<g>
				<path class="st1" d="M2000,2869.5c-668.7,0-1235-189.2-1478.1-364.9c-85.1-61.5-128.2-127.1-128.2-194.9
					c0-133,167.5-257.7,471.7-351.1c303.1-93.1,706-144.4,1134.6-144.4c428.5,0,831.5,51.3,1134.5,144.4
					c304.2,93.4,471.7,218.1,471.7,351.1c0,67.8-43.1,133.3-128.2,194.9C3234.9,2680.4,2668.6,2869.5,2000,2869.5z M2000,1820.4
					c-882.4,0-1600.2,219.5-1600.2,489.4c0,65.7,42.3,129.6,125.7,189.9c242.4,175.2,807.2,363.8,1474.5,363.8
					c667.3,0,1232.1-188.6,1474.6-363.8c83.4-60.3,125.7-124.2,125.7-189.9C3600.2,2039.9,2882.4,1820.4,2000,1820.4z"/>
			</g>
		</g>
	</g>
	<g>
		<g>
			<path class="st1" d="M2000,3142.7c-407.7,0-774.8-143.8-935.3-366.4c-54.9-76.2-82.7-157.3-82.7-241.2
				c0-164.3,107.3-318,302.1-432.8c191.5-112.9,445.8-175,716-175c270.2,0,524.4,62.2,716,175C2910.8,2217,3018,2370.7,3018,2535
				c0,83.9-27.8,165.1-82.7,241.2C2774.7,2998.8,2407.6,3142.7,2000,3142.7z M2000,1966.1c-539.9,0-979.1,255.2-979.1,568.9
				c0,75.6,25.4,149.1,75.4,218.5c153.4,212.8,508.2,350.3,903.8,350.3c395.5,0,750.3-137.5,903.8-350.3
				c50-69.4,75.4-142.9,75.4-218.5C2979.1,2221.3,2539.9,1966.1,2000,1966.1z"/>
		</g>
	</g>
	<g>
		<g>
			<g>
				<path class="st8" d="M3603.3,2309.7c0,68.3-45.2,133.3-126.9,192.4c-243.9,176.3-813.1,364.3-1476.3,364.3
					c-663.3,0-1232.5-188-1476.3-364.3c-81.7-59.1-126.9-124.1-126.9-192.4c0-272,717.8-492.4,1603.3-492.4
					C2885.4,1817.3,3603.3,2037.8,3603.3,2309.7z"/>
			</g>
		</g>
		<g>
			<g>
				<path class="st9" d="M2000,2869.5c-668.7,0-1235-189.2-1478.1-364.9c-85.1-61.5-128.2-127.1-128.2-194.9
					c0-133,167.5-257.7,471.7-351.1c303.1-93.1,706-144.4,1134.6-144.4c428.5,0,831.5,51.3,1134.5,144.4
					c304.2,93.4,471.7,218.1,471.7,351.1c0,67.8-43.1,133.3-128.2,194.9C3234.9,2680.4,2668.6,2869.5,2000,2869.5z M2000,1820.4
					c-882.4,0-1600.2,219.5-1600.2,489.4c0,65.7,42.3,129.6,125.7,189.9c242.4,175.2,807.2,363.8,1474.5,363.8
					c667.3,0,1232.1-188.6,1474.6-363.8c83.4-60.3,125.7-124.2,125.7-189.9C3600.2,2039.9,2882.4,1820.4,2000,1820.4z"/>
			</g>
		</g>
	</g>
	<g class="st2">
		<g>
			<path class="st1" d="M3603.3,2309.7c0,68.3-45.2,133.2-126.9,192.4c-244,176.3-813.2,364.3-1476.4,364.3
				c-663.3,0-1232.5-188.1-1476.3-364.3c-81.8-59.2-126.9-124.2-126.9-192.4c0-8.8,0.8-17.6,2.3-26.3
				c10.1,58.6,53.5,114.6,124.6,166c243.8,176.3,813,364.3,1476.3,364.3c663.2,0,1232.4-188,1476.4-364.3
				c71.1-51.4,114.6-107.4,124.6-166C3602.5,2292.1,3603.3,2300.9,3603.3,2309.7z"/>
		</g>
	</g>
	<g>
		<g>
			<path class="st1" d="M2000,2885.9c-672.4,0-1242.5-190.8-1487.7-368c-89.6-64.8-135-134.8-135-208.2
				c0-140.8,171.6-271.1,483.3-366.8c304.6-93.6,709.3-145.1,1139.4-145.1c430.1,0,834.8,51.5,1139.4,145.1
				c311.7,95.7,483.3,226,483.3,366.8c0,73.3-45.4,143.3-135,208.1C3242.4,2695.2,2672.3,2885.9,2000,2885.9z M2000,1836.8
				c-426.4,0-827,50.9-1128,143.4c-289.7,89-455.8,209.1-455.8,329.6c0,60.1,40,119.6,118.9,176.6
				C775.3,2660.1,1336.3,2847,2000,2847c663.6,0,1224.6-187,1464.9-360.7c78.9-57.1,118.9-116.5,118.9-176.6
				c0-120.5-166.2-240.6-455.9-329.6C2826.9,1887.7,2426.4,1836.8,2000,1836.8z"/>
		</g>
	</g>
	<g>
		<g>
			<path class="st0" d="M3603.3,2269.5c0,68.3-45.2,133.3-126.9,192.4c-243.9,176.3-813.1,299.9-1476.3,299.9
				c-663.3,0-1232.5-123.6-1476.3-299.9c-81.7-59.1-126.9-124.1-126.9-192.4c0-272,717.8-492.4,1603.3-492.4
				C2885.4,1777.1,3603.3,1997.5,3603.3,2269.5z"/>
		</g>
		<g>
			<path class="st1" d="M2000,2764.9c-645.4,0-1225.6-118-1478.1-300.5c-85.1-61.5-128.2-127.1-128.2-194.9
				c0-133,167.5-257.7,471.7-351.1c303.1-93.1,706-144.4,1134.6-144.4c428.5,0,831.5,51.3,1134.5,144.4
				c304.2,93.4,471.7,218.1,471.7,351.1c0,67.8-43.1,133.3-128.2,194.9C3225.5,2646.9,2645.3,2764.9,2000,2764.9z M2000,1780.1
				c-882.4,0-1600.2,219.5-1600.2,489.4c0,65.7,42.3,129.6,125.7,189.9c251.6,181.9,830.4,299.4,1474.5,299.4
				c644.1,0,1222.9-117.5,1474.6-299.4c83.4-60.3,125.7-124.2,125.7-189.9C3600.2,1999.6,2882.4,1780.1,2000,1780.1z"/>
		</g>
	</g>
	<g>
		<g>
			<path class="st0" d="M3603.3,2269.5c0,68.3-45.2,133.3-126.9,192.4c-243.9,176.3-813.1,299.9-1476.3,299.9
				c-663.3,0-1232.5-123.6-1476.3-299.9c-81.7-59.1-126.9-124.1-126.9-192.4c0-272,717.8-492.4,1603.3-492.4
				C2885.4,1777.1,3603.3,1997.5,3603.3,2269.5z"/>
		</g>
		<g>
			<path class="st1" d="M2000,2764.9c-645.4,0-1225.6-118-1478.1-300.5c-85.1-61.5-128.2-127.1-128.2-194.9
				c0-133,167.5-257.7,471.7-351.1c303.1-93.1,706-144.4,1134.6-144.4c428.5,0,831.5,51.3,1134.5,144.4
				c304.2,93.4,471.7,218.1,471.7,351.1c0,67.8-43.1,133.3-128.2,194.9C3225.5,2646.9,2645.3,2764.9,2000,2764.9z M2000,1780.1
				c-882.4,0-1600.2,219.5-1600.2,489.4c0,65.7,42.3,129.6,125.7,189.9c251.6,181.9,830.4,299.4,1474.5,299.4
				c644.1,0,1222.9-117.5,1474.6-299.4c83.4-60.3,125.7-124.2,125.7-189.9C3600.2,1999.6,2882.4,1780.1,2000,1780.1z"/>
		</g>
	</g>
	<g class="st2">
		<g>
			<path class="st1" d="M3603.3,2269.5c0,68.3-45.2,133.2-126.9,192.4c-244,176.3-813.2,299.9-1476.4,299.9
				c-663.3,0-1232.5-123.7-1476.3-299.9c-81.8-59.2-126.9-124.2-126.9-192.4c0-7.7,0.6-15.3,1.8-22.9
				c8.9,59.9,52.6,116.9,125.2,169.4c243.8,176.3,813,299.9,1476.3,299.9c663.2,0,1232.4-123.7,1476.4-299.9
				c72.5-52.5,116.2-109.5,125.2-169.4C3602.7,2254.2,3603.3,2261.8,3603.3,2269.5z"/>
		</g>
	</g>
	<g>
		<g>
			<path class="st1" d="M2000,2781.3c-648.6,0-1232.6-119.2-1487.7-303.6c-89.6-64.8-135-134.8-135-208.2
				c0-140.8,171.6-271.1,483.3-366.8c304.6-93.6,709.3-145.1,1139.4-145.1c430.1,0,834.8,51.5,1139.4,145.1
				c311.7,95.7,483.3,226,483.3,366.8c0,73.3-45.4,143.3-135,208.1C3232.5,2662.1,2648.5,2781.3,2000,2781.3z M2000,1796.5
				c-426.4,0-827,50.9-1128,143.4c-289.7,89-455.8,209.1-455.8,329.6c0,60.1,40,119.6,118.9,176.6c248.9,180,824,296.2,1464.9,296.2
				c640.9,0,1215.9-116.3,1464.9-296.2c78.9-57.1,118.9-116.5,118.9-176.6c0-120.5-166.2-240.6-455.9-329.6
				C2826.9,1847.4,2426.4,1796.5,2000,1796.5z"/>
		</g>
	</g>
	<g>
		<g>
			<path class="st10" d="M3603.3,2181.5c0,68.3-45.2,133.3-126.9,192.4c-243.9,176.3-813.1,299.9-1476.3,299.9
				c-663.3,0-1232.5-123.6-1476.3-299.9c-81.7-59.1-126.9-124.1-126.9-192.4c0-272,717.8-492.4,1603.3-492.4
				C2885.4,1689,3603.3,1909.5,3603.3,2181.5z"/>
		</g>
	</g>
	<g class="st11">
		<g>
			<path class="st0" d="M3603.3,2199.7c0,68.3-45.2,133.2-126.9,192.4c-244,176.3-813.2,299.9-1476.4,299.9
				c-663.3,0-1232.5-123.7-1476.3-299.9c-81.8-59.2-126.9-124.2-126.9-192.4c0-12.4,1.5-24.8,4.5-37
				c13.2,54.8,55.6,107.1,122.5,155.5c243.8,176.3,813,299.9,1476.3,299.9c663.2,0,1232.4-123.7,1476.4-299.9
				c66.8-48.4,109.2-100.7,122.5-155.5C3601.8,2174.9,3603.3,2187.2,3603.3,2199.7z"/>
		</g>
	</g>
	<g class="st11">
		<g>
			<path class="st0" d="M3603.3,2175.4c0,11.3-1.3,22.6-3.7,33.7c-56.3-256.3-751-458.8-1599.6-458.8
				c-848.7,0-1543.3,202.5-1599.5,458.8c-2.4-11.1-3.7-22.4-3.7-33.7c0-272,717.8-492.4,1603.2-492.4
				C2885.4,1682.9,3603.3,1903.4,3603.3,2175.4z"/>
		</g>
	</g>
	<g>
		<g>
			<path class="st1" d="M2810,2145.9c-133.8,70.1-446.1,119.2-810,119.2c-363.9,0-676.2-49.1-810-119.2
				c133.8-70.1,446.1-119.3,810-119.3C2363.8,2026.6,2676.1,2075.7,2810,2145.9z"/>
		</g>
	</g>
	<g>
		<g>
			<path class="st1" d="M2000,2284.6c-356.6,0-678-47.7-819-121.5l-32.9-17.2l32.9-17.2c140.8-73.8,462.3-121.5,819-121.5
				s678.2,47.7,819,121.5l32.9,17.2l-32.9,17.2C2678,2236.9,2356.5,2284.6,2000,2284.6z M1236.6,2145.9
				c150.9,61.2,441.9,99.8,763.4,99.8c321.5,0,612.6-38.6,763.4-99.8c-150.8-61.2-441.8-99.8-763.4-99.8
				C1678.3,2046,1387.3,2084.6,1236.6,2145.9z"/>
		</g>
	</g>
	<g>
		<g>
			<path class="st1" d="M2000,2284.5c-356.7,0-678.1-47.7-819-121.5c-53.1-27.8-80.1-59.4-80.1-93.7c0-64.2,91.8-117.1,272.8-157.4
				c167.5-37.3,389.9-57.8,626.2-57.8c236.3,0,458.7,20.5,626.2,57.8c181.1,40.3,272.9,93.3,272.9,157.4c0,34.3-26.9,65.9-80.1,93.7
				C2678.1,2236.9,2356.6,2284.5,2000,2284.5z M2000,1893.1c-233.6,0-453,20.2-617.8,56.9c-178.7,39.8-242.4,87.8-242.4,119.4
				c0,18.2,21,39.2,59.2,59.3c135.7,71.1,450.1,117,800.9,117c350.8,0,665.2-45.9,801-117c38.2-20,59.2-41.1,59.2-59.2
				c0-31.7-63.7-79.7-242.4-119.4C2453,1913.3,2233.6,1893.1,2000,1893.1z"/>
		</g>
	</g>
	<g>
		<g>
			<path class="st12" d="M2879.6,2069.4c0,27.1-24.8,52.9-69.7,76.5c-133.8-70.1-446.1-119.3-810-119.3s-676.1,49.1-810,119.3
				c-44.8-23.5-69.6-49.3-69.6-76.5c0-108.2,393.8-195.8,879.6-195.8C2485.8,1873.6,2879.6,1961.2,2879.6,2069.4z"/>
		</g>
	</g>
	<g>
		<g>
			<path class="st1" d="M1190,2167.8l-9-4.7c-53.1-27.9-80-59.4-80-93.7c0-64.2,91.8-117.1,272.8-157.4
				c167.4-37.3,389.8-57.8,626.2-57.8c236.4,0,458.7,20.5,626.2,57.8c181.1,40.3,272.9,93.3,272.9,157.4c0,34.3-26.9,65.8-80.1,93.7
				l-9,4.7l-9-4.7C2665.3,2092,2350.9,2046,2000,2046c-350.9,0-665.3,46-800.9,117.1L1190,2167.8z M2000,2007.1
				c349,0,664.3,45.7,809.6,116.8c32.7-18.6,50.6-37.8,50.6-54.5c0-31.7-63.7-79.7-242.4-119.5c-164.8-36.7-384.2-56.9-617.8-56.9
				c-233.6,0-453,20.2-617.8,56.9c-178.7,39.8-242.4,87.8-242.4,119.5c0,16.7,17.9,35.9,50.5,54.5
				C1335.7,2052.8,1651,2007.1,2000,2007.1z"/>
		</g>
	</g>
	<g>
		<g>
			<path class="st1" d="M2000,2284.6c-356.6,0-678-47.7-819-121.5l-32.9-17.2l32.9-17.2c140.8-73.8,462.3-121.5,819-121.5
				s678.2,47.7,819,121.5l32.9,17.2l-32.9,17.2C2678,2236.9,2356.5,2284.6,2000,2284.6z M1236.6,2145.9
				c150.9,61.2,441.9,99.8,763.4,99.8c321.5,0,612.6-38.6,763.4-99.8c-150.8-61.2-441.8-99.8-763.4-99.8
				C1678.3,2046,1387.3,2084.6,1236.6,2145.9z"/>
		</g>
	</g>
	<g>
		<g>
			<path class="st1" d="M2000,2693.2c-648.6,0-1232.6-119.2-1487.7-303.6c-89.6-64.8-135-134.8-135-208.2
				c0-161.8,229-309.9,628.2-406.3c286.3-69.1,630.2-105.6,994.5-105.6c364.3,0,708.2,36.5,994.5,105.6
				c399.2,96.4,628.2,244.5,628.2,406.3c0,73.3-45.4,143.3-135,208.2C3232.4,2574.1,2648.5,2693.2,2000,2693.2z M2000,1708.5
				c-361.3,0-702,36.1-985.4,104.5c-374.7,90.5-598.4,228.2-598.4,368.5c0,60.1,40,119.6,118.9,176.7
				c248.9,180,824,296.2,1464.9,296.2c640.8,0,1215.9-116.3,1465-296.3c78.9-57.1,118.9-116.5,118.9-176.6
				c0-140.2-223.7-278-598.5-368.5C2702,1744.6,2361.2,1708.5,2000,1708.5z"/>
		</g>
	</g>
	<g>
		<g>
			<path class="st0" d="M2340.6,2207.9c5.6,17.5-6.1,35.8-24.4,37.7c-34.9,3.8-71.2,7-108.5,9.7c-86.3,6.3-178.4,9.7-274.1,9.7
				c-47.1,0-93.3-0.8-138.5-2.4c-16.9-0.6-33.7-1.3-50.3-2.1c-21-1-41.6-2.2-62-3.5c-18-1.2-30.5-18.4-26.2-36
				c15.2-61.8,41.8-132.5,88.2-195.9c8.9-12.2,18.5-24.1,29-35.7c7.8-8.6,20.1-11.6,31.1-7.7c126.8,45.7,265.7,45.9,392.6,0.5
				c11.8-4.2,25-0.4,32.7,9.5C2284.4,2062.2,2318.8,2140.1,2340.6,2207.9z"/>
		</g>
		<g>
			<path class="st1" d="M1933.6,2268.1c-47,0-93.7-0.8-138.6-2.4c-17-0.6-33.8-1.3-50.4-2.1c-20.8-1-41.7-2.2-62-3.5
				c-9.4-0.6-18.1-5.4-23.6-13c-5.6-7.7-7.5-17.5-5.2-26.8c18.7-75.7,48.5-142,88.6-197c9.2-12.6,19-24.6,29.2-35.9
				c8.6-9.6,22.1-12.9,34.4-8.5c125.9,45.4,264.6,45.6,390.6,0.5c13.1-4.7,27.7-0.5,36.1,10.5c46.8,60.8,84.1,133.9,110.9,217.1l0,0
				c3,9.2,1.7,19.2-3.6,27.3c-5.2,8.1-13.7,13.3-23.3,14.3c-35,3.8-71.5,7.1-108.6,9.8C2120,2264.9,2027.7,2268.1,1933.6,2268.1z
				 M1795,1983.1c-7.1,0-14,2.9-18.9,8.4c-10,11.1-19.7,23-28.8,35.4c-39.7,54.4-69.2,119.9-87.6,194.9c-1.9,7.6-0.3,15.5,4.3,21.7
				c4.5,6.2,11.5,10,19.2,10.5c20.3,1.3,41.1,2.5,61.9,3.5c16.6,0.9,33.3,1.5,50.3,2.1c44.9,1.6,91.4,2.4,138.4,2.4
				c94,0,186.1-3.3,273.9-9.7c37-2.7,73.5-6,108.4-9.7c7.7-0.8,14.6-5.1,18.9-11.6c4.3-6.6,5.3-14.7,2.9-22.2l0,0
				c-26.6-82.6-63.5-155-109.9-215.2c-6.9-8.9-18.6-12.3-29.3-8.5c-127.3,45.6-267.5,45.4-394.7-0.5
				C1801,1983.6,1798,1983.1,1795,1983.1z"/>
		</g>
	</g>
	<g class="st5">
		<g>
			<path class="st1" d="M2316.2,2245.6c-34.9,3.8-71.2,7-108.5,9.8c-86.3,6.3-178.5,9.7-274.1,9.7c-47.1,0-93.4-0.8-138.5-2.4
				c-16.9-0.6-33.7-1.3-50.3-2.1c-21-1-41.6-2.2-62-3.5c-18.1-1.2-30.5-18.4-26.2-36c4-16.4,8.9-33.5,14.7-50.9
				c3.4,1.8,7.3,2.9,11.4,3.2c20.4,1.3,41,2.5,62,3.5c16.6,0.9,33.4,1.6,50.3,2.1c45.1,1.6,91.4,2.4,138.5,2.4
				c95.7,0,187.8-3.4,274.1-9.7c37.3-2.7,73.6-6,108.5-9.7c2.6-0.3,5.1-0.9,7.4-1.8c6.4,16.3,12.1,32.3,17,47.7
				C2346.2,2225.4,2334.5,2243.7,2316.2,2245.6z"/>
		</g>
	</g>
	<g>
		<g>
			<path class="st1" d="M1933.6,2284.5c-47.2,0-94-0.8-139.2-2.4c-17-0.6-33.9-1.3-50.6-2.2c-20.3-1-40.7-2.1-60.7-3.4
				c-14.7-1-28.1-8.3-36.8-20.2c-8.7-11.9-11.7-27.1-8.1-41.4c19.2-77.2,49.8-144.9,91-201.2c13.6-18.6,28.5-36.2,44.4-52.2l9.1-9.1
				l11.9,4.8c133.9,53.2,281.2,53.2,415-0.2l13.1-5.2l9,10.9c52,62.5,93.4,138.8,123.2,226.7l0,0c5.8,17,3.5,35.4-6.2,50.5
				c-9.7,15.1-25.5,24.8-43.3,26.6c-31.2,3.2-63.5,6.1-96.3,8.4C2120.8,2281.3,2028.1,2284.5,1933.6,2284.5z M1792.4,1997.9
				c-11.3,12.1-22,25.1-31.9,38.7c-38.2,52.3-66.6,115.4-84.6,187.7c-1.1,4.3,0.6,7.6,1.8,9.1c1.1,1.5,3.6,4.1,8,4.4
				c19.8,1.3,40,2.4,60.1,3.4c16.5,0.8,33.2,1.5,50.1,2.1c44.7,1.6,91,2.4,137.8,2.4c93.6,0,185.3-3.2,272.7-9.6
				c32.3-2.4,64.3-5.2,95.1-8.3c6-0.6,11.3-3.9,14.6-9c3.3-5.1,4-11.3,2.1-17l0,0c-26.6-78.3-62.7-146.7-107.5-203.5
				C2075.2,2048.5,1927.8,2048.4,1792.4,1997.9z"/>
		</g>
	</g>
	<g>
		<g>
			<path class="st13" d="M2492.6,1399.4c0,124.2-40.3,238.2-107.6,328.3c-66.3,88.7-113.7,188.8-139.3,294.2l-0.1,0.1
				c-157.8,62.9-333.6,62.9-491.4,0.2c-25.7-105.4-73-205.6-139.4-294.4c-67.3-90-107.6-204.1-107.6-328.3
				c0-290.6,220.5-526.3,492.6-526.3S2492.6,1108.8,2492.6,1399.4z"/>
		</g>
	</g>
	<g class="st2">
		<g>
			<path class="st1" d="M2492.6,1399.4c0,124.2-40.3,238.2-107.6,328.3c-66.3,88.7-113.7,188.8-139.3,294.2l-0.1,0
				c-157.7,62.9-333.6,62.9-491.4,0.1c-25.7-105.3-73-205.6-139.4-294.3c-67.3-90-107.6-204.1-107.6-328.3c0-10,0.2-20,0.8-29.9
				c5.7,112.7,44.8,216,106.8,298.8c31.1,41.6,58,85.6,80.4,131.6c58.8,120.2,182.7,195.4,316.3,189.2c2.7-0.1,5.3-0.3,8-0.4
				c122.3-6.4,231.2-78.9,285-189c22.4-45.9,49.3-89.9,80.4-131.4c62-82.9,101-186.1,106.8-298.8
				C2492.4,1379.4,2492.6,1389.4,2492.6,1399.4z"/>
		</g>
	</g>
	<g class="st4">
		<g>
			<path class="st0" d="M1509.6,1425.4c23.7-267,234.2-475.9,490.4-475.9c256.1,0,466.7,208.9,490.4,475.9c1.2-13.5,1.8-27.1,2-40.8
				c-7.3-283.8-225-511.4-492.5-511.4c-267.5,0-485.2,227.8-492.4,511.7C1507.8,1398.5,1508.4,1412,1509.6,1425.4z"/>
		</g>
	</g>
	<g>
		<g>
			<path class="st1" d="M1999.8,2088.8c-85.6,0-171.2-16.2-252.7-48.6l-9.3-3.7l-2.4-9.8c-25.3-103.7-71-200.4-136-287.3
				c-72.9-97.4-111.4-215-111.4-339.9c0-300.9,229.7-545.7,512-545.7c282.4,0,512.1,244.8,512.1,545.7
				c0,124.9-38.5,242.4-111.4,339.9c-65,86.9-110.8,183.5-136,287.1l-1.3,5.6l-6.9,6.5l-3.5,1.4
				C2171.3,2072.5,2085.5,2088.8,1999.8,2088.8z M1770.7,2007.6c148.3,56.4,310.3,56.3,458.6-0.2c26.9-105,74.1-203,140.2-291.4
				c67.8-90.7,103.7-200.2,103.7-316.6c0-279.4-212.3-506.8-473.2-506.8c-260.9,0-473.2,227.3-473.2,506.8
				c0,116.5,35.9,225.9,103.7,316.6C1696.6,1804.4,1743.8,1902.5,1770.7,2007.6z M2245.8,2021.9L2245.8,2021.9L2245.8,2021.9z"/>
		</g>
	</g>
	<g>
		<g>
			<g>
				
					<ellipse transform="matrix(0.9084 -0.418 0.418 0.9084 -479.4835 883.2887)" class="st1" cx="1776.6" cy="1536.2" rx="119.4" ry="169"/>
			</g>
		</g>
		<g>
			<g>
				<g>
					
						<ellipse transform="matrix(4.909970e-02 -0.9988 0.9988 4.909970e-02 169.543 3163.7795)" class="st0" cx="1746.3" cy="1492.8" rx="68.3" ry="57.8"/>
				</g>
			</g>
			<g>
				<g>
					<path class="st1" d="M1745.3,1564.1c-0.9,0-1.7,0-2.6-0.1c-33.5-1.7-59.2-35-57.3-74.3c0.9-18.9,8.1-36.5,20.1-49.4
						c12.2-13,27.8-19.7,44.2-18.9c16.3,0.8,31.3,9,42.1,23.2c10.7,14,16.1,32.1,15.2,51.1
						C1805.2,1534.1,1777.8,1564.1,1745.3,1564.1z M1747.2,1427.5c-13.7,0-26.8,6-37.2,17.1c-11.1,11.8-17.6,28-18.5,45.5
						c-1.8,36,21.4,66.4,51.5,67.9c30.4,1.5,56.2-26.6,57.9-62.5l0,0c0.9-17.5-4.1-34.2-13.9-47.1c-9.7-12.7-23.1-20.1-37.6-20.8
						C1748.7,1427.5,1747.9,1427.5,1747.2,1427.5z"/>
				</g>
			</g>
		</g>
		<g>
			<g>
				<g>
					
						<ellipse transform="matrix(4.909970e-02 -0.9988 0.9988 4.909970e-02 120.804 3352.9255)" class="st0" cx="1821.3" cy="1613" rx="30.4" ry="25.8"/>
				</g>
			</g>
			<g>
				<g>
					<path class="st1" d="M1820.8,1645.7c-0.4,0-0.8,0-1.2,0c-7.6-0.4-14.5-4.2-19.5-10.7c-4.9-6.4-7.4-14.7-7-23.4
						c0.9-18,13.9-32.2,29.6-31.3c15.4,0.8,27.3,16,26.4,34.1c-0.4,8.7-3.7,16.7-9.2,22.6
						C1834.7,1642.6,1827.9,1645.7,1820.8,1645.7z M1821.6,1584.8c-12.5,0-23.2,11.9-23.9,27c-0.4,7.6,1.8,14.8,6,20.4
						c4.2,5.4,9.9,8.6,16.1,8.9c6.2,0.3,12.2-2.3,16.9-7.3c4.8-5.1,7.6-12.1,8-19.7c0.8-15.5-9.2-28.7-22.1-29.3
						C1822.3,1584.8,1822,1584.8,1821.6,1584.8z"/>
				</g>
			</g>
		</g>
	</g>
	<g>
		<g>
			<g>
				
					<ellipse transform="matrix(0.418 -0.9084 0.9084 0.418 -101.783 2913.7234)" class="st1" cx="2223.2" cy="1536.3" rx="169" ry="119.4"/>
			</g>
		</g>
		<g>
			<g>
				<g>
					
						<ellipse transform="matrix(0.9988 -4.909970e-02 4.909970e-02 0.9988 -70.574 112.4616)" class="st0" cx="2253.8" cy="1492.7" rx="57.8" ry="68.3"/>
				</g>
			</g>
			<g>
				<g>
					<path class="st1" d="M2254.7,1564.1c-32.4,0-59.8-30.1-61.7-68.4l0,0c-0.9-18.9,4.5-37.1,15.2-51.1
						c10.8-14.1,25.8-22.4,42.1-23.2c16.2-0.8,32,5.9,44.2,18.9c12,12.9,19.2,30.4,20.1,49.4c1.9,39.3-23.8,72.6-57.3,74.3
						C2256.4,1564.1,2255.5,1564.1,2254.7,1564.1z M2252.8,1427.5c-0.8,0-1.5,0-2.3,0.1c-14.5,0.7-27.9,8.1-37.6,20.8
						c-9.8,12.9-14.8,29.6-13.9,47.1l0,0c1.8,36,27.6,64,57.9,62.5c30.2-1.5,53.3-31.9,51.5-67.9c-0.9-17.5-7.4-33.7-18.5-45.5
						C2279.7,1433.5,2266.5,1427.5,2252.8,1427.5z"/>
				</g>
			</g>
		</g>
		<g>
			<g>
				<g>
					
						<ellipse transform="matrix(0.9988 -4.909970e-02 4.909970e-02 0.9988 -76.5645 108.9265)" class="st0" cx="2178.9" cy="1612.9" rx="25.8" ry="30.4"/>
				</g>
			</g>
			<g>
				<g>
					<path class="st1" d="M2179.2,1645.7c-14.9,0-27.6-13.8-28.4-31.3l0,0c-0.9-18,11-33.3,26.4-34.1c15.4-0.9,28.7,13.3,29.6,31.3
						c0.4,8.7-2,17-7,23.4c-5,6.5-11.9,10.3-19.5,10.7C2180,1645.7,2179.6,1645.7,2179.2,1645.7z M2155.3,1614.1
						c0.8,15.5,11.8,27.6,24.9,27c6.2-0.3,11.9-3.5,16.1-8.9c4.3-5.6,6.4-12.8,6-20.4c-0.8-15.5-12.1-27.6-24.9-27
						C2164.4,1585.5,2154.5,1598.6,2155.3,1614.1L2155.3,1614.1z"/>
				</g>
			</g>
		</g>
	</g>
	<g>
		<g>
			<path class="st1" d="M1918.8,1725.6c10.6,21.3,19.6,36,32.6,47.2c6.4,5.6,13.6,10.5,21.9,14.1c8.3,3.5,17.5,5.4,26.7,5.2
				c18.6-0.2,35.9-8.4,48.5-19.4c1.6-1.4,3.2-2.8,4.6-4.4c0.7-0.8,1.5-1.5,2.3-2.3l2-2.5l2.1-2.5c0.6-0.9,1.1-1.8,1.8-2.7
				c1.3-1.8,2.6-3.6,3.7-5.6c5-7.7,9.7-16.4,16.3-27l0.1-0.1c0.9-1.4,2.6-1.8,4-0.9c0.4,0.3,0.8,0.6,1,1c6.4,11.2,7.6,24.4,4.7,37.1
				l-1.2,4.8l-1.8,4.6c-0.6,1.5-1.3,3-2,4.5l-2.5,4.3c-1.6,2.9-3.4,5.7-5.6,8.3c-2,2.7-4.3,5.1-6.6,7.5
				c-9.5,9.4-21.3,16.2-33.6,20.2c-12.3,4.1-25.1,5.8-37.7,5.7c-12.7-0.3-25.3-2.1-37.6-6.1c-12.2-4-24.2-10.4-33.6-19.9
				c-9.4-9.4-16.3-21.6-18.9-34.2c-2.6-12.7-1.5-25.6,3.8-36.8c0.7-1.4,2.3-2,3.7-1.3C1918,1724.5,1918.5,1725,1918.8,1725.6
				L1918.8,1725.6z"/>
		</g>
	</g>
	<g>
		<g>
			<path class="st14" d="M1813.6,1931.8v328.8c-32.6-1.6-64.5-3.5-95.6-5.9c-4.3-0.3-8.5-0.6-12.7-1v-321.8
				c0-21.7,12.8-40.4,31.2-49.1c7-3.3,14.7-5.1,22.9-5.1c5.8,0,11.4,0.9,16.5,2.6c8.3,2.7,15.7,7.2,21.7,13.3
				C1807.5,1903.3,1813.6,1916.9,1813.6,1931.8z"/>
		</g>
		<g>
			<path class="st1" d="M1816.7,2263.7l-3.2-0.2c-32.7-1.6-64.9-3.6-95.6-5.9c-4.3-0.3-8.5-0.6-12.7-1l-2.8-0.2v-324.6
				c0-22.1,12.9-42.4,32.9-51.8c13-6.1,28.4-7,41.7-2.6c8.7,2.8,16.6,7.6,23,14c10.8,10.8,16.7,25.2,16.7,40.4L1816.7,2263.7
				L1816.7,2263.7z M1708.4,2250.8c3.3,0.3,6.6,0.5,9.9,0.8c29.7,2.3,60.8,4.2,92.3,5.8v-325.6c0-13.6-5.3-26.5-15-36.1
				c-5.7-5.7-12.8-10.1-20.5-12.5c-11.9-3.9-25.7-3.1-37.3,2.4c-17.9,8.4-29.4,26.6-29.4,46.3V2250.8z"/>
		</g>
	</g>
	<g>
		<g>
			<path class="st0" d="M1813.6,1931.8v328.8c-32.6-1.6-64.5-3.5-95.6-5.9c-4.2-0.3-8.5-0.6-12.7-1v-321.9c0-21.7,12.7-40.4,31.2-49
				c7-3.3,14.7-5.1,22.9-5.1c5.8,0,11.3,0.9,16.5,2.6c8.3,2.6,15.8,7.2,21.7,13.3C1807.5,1903.3,1813.6,1916.9,1813.6,1931.8z"/>
		</g>
		<g>
			<path class="st1" d="M1816.7,2263.7l-3.2-0.1c-32-1.5-64.1-3.5-95.7-5.9c-4-0.3-8-0.6-12-0.9l-3.5-0.3v-324.7
				c0-22.1,12.9-42.4,33-51.8c13-6.1,28.4-7,41.7-2.6c8.6,2.7,16.6,7.6,22.9,14c10.8,10.8,16.7,25.1,16.7,40.4L1816.7,2263.7
				L1816.7,2263.7z M1708.4,2250.8c3.3,0.3,6.6,0.5,9.9,0.7c30.4,2.3,61.5,4.3,92.3,5.8v-325.6c0-13.6-5.3-26.5-15-36.1
				c-5.7-5.7-12.8-10.1-20.5-12.5c-11.9-3.9-25.7-3.1-37.3,2.3c-17.9,8.4-29.5,26.6-29.5,46.3L1708.4,2250.8L1708.4,2250.8z"/>
		</g>
	</g>
	<g class="st2">
		<g>
			<path class="st1" d="M1813.6,2008.5v252c-32.6-1.6-64.5-3.5-95.6-5.9c-4.2-0.3-8.5-0.6-12.7-1v-245.1c0-21.7,12.7-40.4,31.2-49
				c7-3.3,14.7-5.1,22.9-5.1c5.8,0,11.3,0.9,16.5,2.6c8.3,2.7,15.8,7.2,21.7,13.3C1807.5,1980.1,1813.6,1993.6,1813.6,2008.5z"/>
		</g>
	</g>
	<g>
		<g>
			<path class="st1" d="M1833.1,2280.9l-20.4-1c-32.8-1.6-65.2-3.6-96.1-6c-4.3-0.3-8.6-0.7-12.9-1l-17.8-1.5v-339.7
				c0-28.4,16.6-54.6,42.4-66.7c16.8-7.9,36.5-9,53.8-3.4c11.1,3.5,21.3,9.8,29.5,18.1c13.9,13.9,21.5,32.3,21.5,52L1833.1,2280.9
				L1833.1,2280.9z M1724.8,2235.6c22.5,1.7,45.8,3.2,69.4,4.4v-308.3c0-9.3-3.6-18-10.2-24.5c-3.9-3.9-8.7-6.8-13.9-8.5
				c-8.1-2.6-17.4-2.1-25.3,1.6c-12.1,5.7-20,18-20,31.5L1724.8,2235.6L1724.8,2235.6z"/>
		</g>
	</g>
	<g>
		<g>
			<ellipse class="st13" cx="1819.1" cy="2083.6" rx="48.9" ry="67.4"/>
		</g>
	</g>
	<g class="st5">
		<g>
			<ellipse class="st1" cx="1819.1" cy="2083.6" rx="48.9" ry="67.4"/>
		</g>
	</g>
	<g>
		<g>
			<path class="st1" d="M1819.1,2166.1c-35.9,0-64.1-36.3-64.1-82.6s28.1-82.6,64.1-82.6s64.1,36.3,64.1,82.6
				S1855,2166.1,1819.1,2166.1z M1819.1,2031.4c-18.3,0-33.7,23.9-33.7,52.2s15.4,52.2,33.7,52.2s33.7-23.9,33.7-52.2
				S1837.4,2031.4,1819.1,2031.4z"/>
		</g>
	</g>
	<g>
		<g>
			<ellipse class="st13" cx="1714.2" cy="2109.1" rx="99.5" ry="114.5"/>
		</g>
	</g>
	<g class="st4">
		<g>
			<path class="st0" d="M1813.7,2109.1c0,6.5-0.1,12.6-0.4,18.4c-4.7-96.1-47.3-96.1-99.1-96.1c-49.5,0-90.6,41.6-98.1,96.1
				c-0.9-6-1.3-12.1-1.3-18.4c0-63.2,44.5-114.4,99.5-114.4C1769.1,1994.7,1813.7,1994.7,1813.7,2109.1z"/>
		</g>
	</g>
	<g class="st5">
		<g>
			<path class="st6" d="M1813.7,2109.1c0,114.4-44.6,114.4-99.5,114.4c-54.9,0-99.5-51.2-99.5-114.4c0-9.8,1.1-19.2,3.1-28.2
				c10.9,49.6,49.9,86.2,96.4,86.2c50,0,91.4,0,98.4-86.2C1813.3,2089.4,1813.7,2098.8,1813.7,2109.1z"/>
		</g>
		<g>
			<path class="st1" d="M1714.1,2226.6c-56.5,0-102.5-52.7-102.5-117.5c0-9.7,1.1-19.5,3.1-28.9l3-13.5l3,13.5
				c10.9,49.4,49.3,83.9,93.4,83.9c49.5,0,88.6,0,95.4-83.4l6.1,0c0.7,8.5,1.1,17.8,1.1,28.5
				C1816.7,2226.6,1769.2,2226.6,1714.1,2226.6z M1618.5,2095c-0.5,4.7-0.8,9.4-0.8,14.1c0,61.4,43.3,111.4,96.4,111.4
				c53.2,0,95.4,0,96.5-107.4c-14.4,57-52.9,57-96.5,57C1671.3,2170.2,1633.6,2139.9,1618.5,2095z"/>
		</g>
	</g>
	<g>
		<g>
			<path class="st1" d="M1714.2,2243c-65.6,0-118.9-60.1-118.9-133.9s53.4-133.9,118.9-133.9c67.4,0,118.9,9.9,118.9,133.9
				C1833.1,2233.2,1781.5,2243,1714.2,2243z M1714.2,2014.1c-44.1,0-80,42.6-80,95c0,52.4,35.9,95,80,95c53.3,0,80,0,80-95
				C1794.2,2014.1,1767.5,2014.1,1714.2,2014.1z"/>
		</g>
	</g>
	<g>
		<g>
			<path class="st14" d="M2195.2,1931.8v328.8c32.6-1.6,64.5-3.5,95.6-5.9c4.3-0.3,8.5-0.6,12.7-1v-321.8
				c0-21.7-12.8-40.4-31.2-49.1c-7-3.3-14.7-5.1-22.9-5.1c-5.8,0-11.4,0.9-16.5,2.6c-8.3,2.7-15.7,7.2-21.7,13.3
				C2201.3,1903.3,2195.2,1916.9,2195.2,1931.8z"/>
		</g>
		<g>
			<path class="st1" d="M2192.1,2263.7v-331.9c0-15.3,5.9-29.6,16.7-40.4c6.4-6.4,14.3-11.3,23-14c13.3-4.3,28.7-3.5,41.7,2.6
				c20,9.4,32.9,29.7,32.9,51.8v324.6l-2.8,0.2c-4.2,0.4-8.5,0.7-12.7,1c-30.8,2.4-63,4.4-95.6,5.9L2192.1,2263.7z M2249.3,1880.7
				c-5.4,0-10.6,0.8-15.6,2.4c-7.7,2.5-14.8,6.8-20.5,12.5c-9.6,9.7-15,22.5-15,36.1v325.6c31.5-1.5,62.6-3.5,92.3-5.8
				c3.3-0.3,6.6-0.5,9.9-0.8v-319c0-19.7-11.6-37.9-29.4-46.3C2264.2,1882.3,2256.9,1880.7,2249.3,1880.7z"/>
		</g>
	</g>
	<g>
		<g>
			<path class="st0" d="M2195.2,1931.8v328.8c32.6-1.6,64.5-3.5,95.6-5.9c4.2-0.3,8.5-0.6,12.7-1v-321.9c0-21.7-12.7-40.4-31.2-49
				c-7-3.3-14.7-5.1-22.9-5.1c-5.8,0-11.3,0.9-16.5,2.6c-8.3,2.6-15.8,7.2-21.7,13.3C2201.3,1903.3,2195.2,1916.9,2195.2,1931.8z"/>
		</g>
		<g>
			<path class="st1" d="M2192.2,2263.7v-331.9c0-15.3,5.9-29.6,16.7-40.4c6.4-6.4,14.3-11.3,23-14c13.2-4.3,28.7-3.4,41.7,2.6
				c20,9.4,33,29.7,33,51.8v324.7l-3.5,0.3c-4,0.3-8,0.6-12,0.9c-31.5,2.4-63.7,4.4-95.6,5.9L2192.2,2263.7z M2249.3,1880.7
				c-5.4,0-10.7,0.8-15.6,2.4c-7.8,2.5-14.8,6.8-20.5,12.5c-9.7,9.6-15,22.5-15,36.1v325.6c30.8-1.5,61.9-3.4,92.3-5.8
				c3.3-0.2,6.6-0.5,9.9-0.7v-319.1c0-19.7-11.6-37.9-29.5-46.3C2264.2,1882.3,2256.9,1880.7,2249.3,1880.7z"/>
		</g>
	</g>
	<g class="st2">
		<g>
			<path class="st1" d="M2195.2,2008.5v252c32.6-1.6,64.5-3.5,95.6-5.9c4.2-0.3,8.5-0.6,12.7-1v-245.1c0-21.7-12.7-40.4-31.2-49
				c-7-3.3-14.7-5.1-22.9-5.1c-5.8,0-11.3,0.9-16.5,2.6c-8.3,2.7-15.8,7.2-21.7,13.3C2201.3,1980.1,2195.2,1993.6,2195.2,2008.5z"/>
		</g>
	</g>
	<g>
		<g>
			<path class="st1" d="M2175.7,2280.9v-349.2c0-19.7,7.7-38.1,21.5-52c8.2-8.2,18.4-14.5,29.5-18.1c7.1-2.3,14.7-3.5,22.5-3.5
				c10.9,0,21.4,2.3,31.2,6.9c25.8,12.1,42.4,38.3,42.4,66.7v339.7l-17.8,1.5c-4.3,0.4-8.6,0.7-12.9,1c-30.9,2.4-63.3,4.4-96.1,6
				L2175.7,2280.9z M2249.3,1897.1c-3.7,0-7.2,0.5-10.5,1.6c-5.3,1.7-10.1,4.6-14,8.5c-6.6,6.6-10.2,15.3-10.2,24.6v308.3
				c23.6-1.3,46.9-2.8,69.4-4.4v-303.8c0-13.4-7.9-25.8-20-31.5C2259.4,1898.2,2254.5,1897.1,2249.3,1897.1z"/>
		</g>
	</g>
	<g>
		<g>
			<ellipse class="st13" cx="2189.7" cy="2083.6" rx="48.9" ry="67.4"/>
		</g>
	</g>
	<g class="st5">
		<g>
			<ellipse class="st1" cx="2189.7" cy="2083.6" rx="48.9" ry="67.4"/>
		</g>
	</g>
	<g>
		<g>
			<path class="st1" d="M2189.7,2166.1c-35.9,0-64.1-36.3-64.1-82.6s28.1-82.6,64.1-82.6s64.1,36.3,64.1,82.6
				S2225.6,2166.1,2189.7,2166.1z M2189.7,2031.4c-18.3,0-33.7,23.9-33.7,52.2s15.4,52.2,33.7,52.2s33.7-23.9,33.7-52.2
				S2207.9,2031.4,2189.7,2031.4z"/>
		</g>
	</g>
	<g>
		<g>
			<ellipse class="st13" cx="2294.6" cy="2109.1" rx="99.5" ry="114.5"/>
		</g>
	</g>
	<g class="st4">
		<g>
			<path class="st0" d="M2195.1,2109.1c0,6.5,0.1,12.6,0.4,18.4c4.7-96.1,47.3-96.1,99.1-96.1c49.5,0,90.6,41.6,98.1,96.1
				c0.9-6,1.3-12.1,1.3-18.4c0-63.2-44.5-114.4-99.5-114.4C2239.7,1994.7,2195.1,1994.7,2195.1,2109.1z"/>
		</g>
	</g>
	<g class="st5">
		<g>
			<path class="st6" d="M2195.1,2109.1c0,114.4,44.6,114.4,99.5,114.4c54.9,0,99.5-51.2,99.5-114.4c0-9.8-1.1-19.2-3.1-28.2
				c-10.9,49.6-49.9,86.2-96.4,86.2c-50,0-91.4,0-98.4-86.2C2195.5,2089.4,2195.1,2098.8,2195.1,2109.1z"/>
		</g>
		<g>
			<path class="st1" d="M2294.6,2226.6c-55,0-102.5,0-102.5-117.5c0-10.7,0.4-20,1.1-28.5l6.1,0c6.8,83.4,45.9,83.4,95.4,83.4
				c44.1,0,82.5-34.5,93.4-83.9l3-13.5l3,13.5c2.1,9.4,3.1,19.2,3.1,28.9C2397.1,2173.9,2351.2,2226.6,2294.6,2226.6z
				 M2198.2,2113.1c1,107.4,43.2,107.4,96.5,107.4c53.2,0,96.4-50,96.4-111.4c0-4.7-0.3-9.5-0.8-14.1
				c-15.1,44.9-52.8,75.2-95.6,75.2C2251.1,2170.2,2212.6,2170.2,2198.2,2113.1z"/>
		</g>
	</g>
	<g>
		<g>
			<path class="st1" d="M2294.6,2243c-67.4,0-118.9-9.9-118.9-133.9c0-124,51.5-133.9,118.9-133.9c65.6,0,118.9,60.1,118.9,133.9
				S2360.2,2243,2294.6,2243z M2294.6,2014.1c-53.3,0-80,0-80,95c0,95,26.7,95,80,95c44.1,0,80-42.6,80-95
				C2374.7,2056.7,2338.8,2014.1,2294.6,2014.1z"/>
		</g>
	</g>
	<g>
		<g>
			<path class="st1" d="M2000,2284.6c-46.8,0-93.6-0.8-139.1-2.4c-17.1-0.6-33.9-1.3-50.6-2.2c-32.2-1.5-64.5-3.5-96-6
				c-4-0.3-8.1-0.6-12.2-0.9c-233.3-18.6-423-58.7-520.9-110c-21.1-11.1-38.2-22.8-50.8-34.8c-14.7-13.9-24-28.8-27.5-44.2
				c-2.2-3.9-4.4-7.7-6.6-11.6c-2.7-4.7-5.3-9.7-8-14.6c-2.3-4.2-4.6-8.5-6.8-12.9c-0.5-1-1-1.9-1.5-3c-2.2-4.2-4.3-8.4-6.4-12.7
				l-0.7-1.5c-2.3-4.8-4.6-9.4-6.8-14c-0.1-0.1-0.2-0.5-0.5-1c-2.1-4.5-4.2-9-6.3-13.5c-0.6-1.2-1.1-2.4-1.7-3.7
				c-3.6-7.9-7.5-16.8-11.9-27.5c-1.2-2.8-2.5-5.9-3.7-9c-1.3-3.2-2.7-6.4-3.9-9.6c-0.7-1.8-1.6-4-2.4-6.3
				c-1.5-3.6-2.9-7.3-4.2-10.9c-0.6-1.5-1.2-3.1-1.7-4.6c-1.7-4.4-3.1-8.6-4.6-12.8c-0.8-2.2-1.6-4.4-2.3-6.6
				c-1.3-3.6-2.7-7.8-4.1-12c-4.8-14.4-9.4-29.2-13.5-43.8c-1.3-4.6-2.6-9.4-3.9-14.3c-0.4-1.1-0.8-2.9-1.3-4.7
				c-1.3-4.9-2.6-9.9-3.8-15c-0.3-1-0.5-2.1-0.8-3.1c-1.2-4.8-2.3-9.7-3.4-14.5c-0.2-0.7-0.4-1.4-0.5-2.1
				c-2.6-10.4,3.7-21.1,14.1-23.8c10.4-2.6,20.9,3.5,23.6,13.9l0.7,2.9c1.1,4.8,2.2,9.7,3.4,14.5l0.6,2.6c1.2,4.9,2.5,9.8,3.7,14.7
				c0.3,1.3,0.7,2.6,1,3.8c1.4,5.2,2.6,9.7,3.9,14.2c4,14.2,8.4,28.4,13,42.3c1.3,3.9,2.6,7.8,4,11.6c0.8,2.3,1.5,4.3,2.1,6.2
				c1.4,4,2.9,8,4.3,12c0.6,1.8,1.1,3,1.6,4.2l0.3,0.8c1.2,3.4,2.6,6.9,3.9,10.3l0.2,0.6c0.7,1.9,1.4,3.8,2.2,5.6
				c1.2,3.2,2.4,6,3.6,8.9l0.4,0.9c1,2.6,2.1,5.3,3.2,7.9c4.4,10.5,8.1,19,11.7,27c0.5,1.1,0.8,1.7,1.1,2.4l0.3,0.7
				c2,4.5,4.1,8.9,6.2,13.4l0.3,0.7c2.3,4.8,4.4,9.2,6.6,13.5l0.7,1.3c2.1,4.2,4.2,8.4,6.3,12.5l0.3,0.6c0.2,0.4,0.4,0.8,0.6,1.1
				l0.3,0.6c2.2,4.3,4.5,8.6,6.8,12.8c2.5,4.7,5,9.3,7.6,13.9c2.6,4.7,5.2,9.3,7.9,13.8l1.8,3l0.6,3.5c1.4,8.3,7,17.1,16.7,26.3
				c10,9.5,24.2,19.1,42.1,28.6c93.4,49,277.6,87.4,505.4,105.6c4.5,0.4,8.5,0.7,12.5,1c31.3,2.4,63.3,4.4,95.1,5.9
				c16.6,0.8,33.3,1.5,50.2,2.1c45.1,1.6,91.4,2.4,137.7,2.4c93.4,0,185.1-3.3,272.7-9.7c49.5-3.6,97.3-8.2,142-13.6
				c173.3-20.7,310.4-54,386.2-93.7c17.8-9.4,32-19,42-28.5c9.7-9.2,15.3-18,16.8-26.3l0.6-3.4l1.7-3c6.9-11.9,13.5-23.9,19.7-35.7
				c2-3.7,3.9-7.3,5.7-11c0.8-1.6,1.4-2.7,1.9-3.8l0.4-0.8c1.8-3.6,3.6-7.1,5.3-10.7l0.7-1.5c0.6-1.2,1.2-2.4,1.7-3.5
				c1.8-3.7,3.5-7.1,5-10.5l0.3-0.6c3.4-7,6.5-14.1,9.6-21.2c2.4-5.6,4.9-11.2,7.2-16.9c2.2-5.2,4.2-10.2,6.2-15.3
				c0.8-2.1,1.6-3.9,2.3-5.9l0.2-0.6c1.4-3.4,2.7-6.9,3.9-10.3l0.3-0.8c0.5-1.3,1-2.6,1.5-4c1.6-4.2,3-8.2,4.4-12.2
				c0.7-1.9,1.4-3.8,2-5.7c1.5-4.2,2.8-8.1,4.1-11.9c4.7-14,9.1-28.1,13-42.2c1.4-4.7,2.6-9.2,3.8-13.8c0.5-1.7,0.8-2.8,1.1-3.9
				c1.4-5.3,2.7-10.2,3.9-15.2l0.6-2.6c1.2-4.9,2.4-9.8,3.5-14.7l0.2-0.8c0.1-0.7,0.3-1.3,0.4-2c2.6-10.4,13.2-16.7,23.6-14.1
				c10.4,2.6,16.7,13.2,14.1,23.6l-0.5,2.3c-1.1,4.8-2.3,9.7-3.5,14.7c-0.2,1-0.5,2-0.8,3.1c-1.2,5-2.5,10.1-3.8,15.1
				c-0.5,2-0.9,3.6-1.4,5.2c-1.1,4.3-2.4,9.1-3.8,13.9c-4.1,14.5-8.7,29.3-13.5,43.8c-1.3,4-2.7,8.2-4.2,12.3
				c-0.6,1.7-1.3,4-2.1,6.2c-1.5,4.2-3,8.3-4.5,12.5c-0.6,1.6-1.2,3.3-1.8,4.9c-1.3,3.6-2.7,7.3-4.2,10.9c-0.8,2.2-1.7,4.4-2.6,6.6
				c-2,5.2-4.2,10.6-6.5,15.9c-2.3,5.7-4.9,11.7-7.5,17.6c-3.3,7.4-6.6,14.8-10.1,22.1c-1.7,3.8-3.5,7.5-5.3,11.3
				c-0.5,1.1-1.2,2.5-1.9,4l-0.7,1.4c-1.8,3.8-3.7,7.5-5.6,11.3c-0.8,1.6-1.6,3.2-2.5,4.9c-1.7,3.5-3.8,7.4-5.8,11.3
				c-5.9,11.3-12.2,22.8-18.8,34.3c-3.6,15.4-12.9,30.3-27.6,44.2c-12.6,12-29.7,23.7-50.7,34.7c-79.9,41.9-221.8,76.6-399.6,97.9
				c-45.3,5.5-93.7,10.1-143.9,13.8C2187,2281.3,2094.3,2284.6,2000,2284.6z M1100.6,1996.6c0.1,0.2,0.2,0.3,0.2,0.5
				C1100.8,1996.9,1100.7,1996.8,1100.6,1996.6z"/>
		</g>
	</g>
	<g>
		<g>
			<ellipse class="st15" cx="2000" cy="2454.9" rx="115.5" ry="113"/>
		</g>
	</g>
	<g class="st11">
		<g>
			<path class="st0" d="M2115.5,2454.9c0,8.5-0.9,16.7-2.8,24.5c-11.4-50.6-57.6-88.5-112.7-88.5c-55.2,0-101.3,37.9-112.7,88.5
				c-1.8-7.9-2.8-16.1-2.8-24.5c0-62.4,51.7-113,115.5-113S2115.5,2392.5,2115.5,2454.9z"/>
		</g>
	</g>
	<g class="st5">
		<g>
			<path class="st1" d="M2115.5,2454.9c0,62.4-51.7,113-115.5,113s-115.5-50.6-115.5-113c0-9.4,1.2-18.6,3.4-27.3
				c12.5,49.2,57.9,85.7,112.1,85.7s99.6-36.5,112.1-85.7C2114.3,2436.3,2115.5,2445.4,2115.5,2454.9z"/>
		</g>
	</g>
	<g>
		<g>
			<path class="st1" d="M2000,2587.2c-74.4,0-134.9-59.4-134.9-132.4s60.5-132.4,134.9-132.4s134.9,59.4,134.9,132.4
				C2134.9,2527.9,2074.4,2587.2,2000,2587.2z M2000,2361.3c-53,0-96,42-96,93.5c0,51.6,43.1,93.5,96,93.5c53,0,96-41.9,96-93.5
				C2096,2403.3,2052.9,2361.3,2000,2361.3z"/>
		</g>
	</g>
	<g>
		<g>
			
				<ellipse transform="matrix(0.1863 -0.9825 0.9825 0.1863 517.0102 4915.8159)" class="st15" cx="3226.3" cy="2145.8" rx="77.9" ry="113"/>
		</g>
	</g>
	<g class="st11">
		<g>
			<path class="st0" d="M3337.6,2148.8c-17.3-20.1-45.4-36.2-79-42.5c-61.3-11.6-117.5,13.2-125.5,55.5c-1.2,6-1.3,12.1-0.4,18
				c-14.2-16.5-21-35.9-17.5-55c8-42.3,64.2-67.1,125.5-55.5C3293.4,2079.3,3332.6,2112.9,3337.6,2148.8z"/>
		</g>
	</g>
	<g class="st5">
		<g>
			<path class="st1" d="M3337.3,2166.9c-8,42.3-64.2,67.1-125.5,55.5c-49.1-9.4-86.7-39.3-95.5-72.5c17.4,16.1,42.1,28.7,70.9,34.1
				c61.3,11.6,117.5-13.2,125.5-55.5c1.6-8.4,1.2-16.8-1-25.1C3331.4,2121.7,3341.5,2144.5,3337.3,2166.9z"/>
		</g>
	</g>
	<g>
		<g>
			<path class="st1" d="M3242.4,2244.7c-11.1,0-22.6-1.1-34.2-3.3c-72.9-13.8-122.1-66.7-111.9-120.3c10.2-53.6,75.3-84.8,148.2-71
				l0,0c72.9,13.8,122.1,66.7,111.9,120.3C3347.8,2215.5,3300.5,2244.7,3242.4,2244.7z M3211,2085.9c-39.1,0-71.7,16.9-76.5,42.5
				c-5.9,31.1,31.2,65.4,81,74.8c49.8,9.4,96.8-8.9,102.8-40c5.9-31.1-31.2-65.4-81-74.8l0,0
				C3228.3,2086.7,3219.5,2085.9,3211,2085.9z"/>
		</g>
	</g>
	<g>
		<g>
			
				<ellipse transform="matrix(0.9825 -0.1863 0.1863 0.9825 -385.9262 184.9348)" class="st15" cx="791" cy="2145.9" rx="113" ry="77.9"/>
		</g>
	</g>
	<g class="st11">
		<g>
			<path class="st0" d="M679.7,2148.8c17.3-20.1,45.4-36.2,79-42.5c61.3-11.6,117.5,13.2,125.5,55.5c1.2,6,1.3,12.1,0.4,18
				c14.2-16.5,21-35.9,17.5-55c-8-42.3-64.2-67.1-125.5-55.5C723.9,2079.3,684.7,2112.9,679.7,2148.8z"/>
		</g>
	</g>
	<g class="st5">
		<g>
			<path class="st1" d="M680.1,2166.9c8,42.3,64.2,67.1,125.5,55.5c49.1-9.4,86.7-39.3,95.5-72.5c-17.4,16.1-42.1,28.7-70.9,34.1
				c-61.3,11.6-117.5-13.2-125.5-55.5c-1.6-8.4-1.2-16.8,1-25.1C686,2121.7,675.8,2144.5,680.1,2166.9z"/>
		</g>
	</g>
	<g>
		<g>
			<path class="st1" d="M775.5,2244.7c-21.7,0-42.5-4.1-60.5-12.1c-29.7-13.1-48.9-35.2-54-62.1c-5.1-26.9,4.7-54.5,27.5-77.6
				c21-21.2,50.9-36.4,84.4-42.7c72.9-13.8,138,17.3,148.2,71c10.2,53.6-39,106.5-111.9,120.3
				C797.9,2243.6,786.6,2244.7,775.5,2244.7z M806.4,2085.9c-8.5,0-17.3,0.8-26.2,2.5l0,0c-25.8,4.9-48.6,16.2-64,31.9
				c-7.9,8-20.5,24.1-17,43c3.6,18.8,21.3,29.3,31.5,33.8c20.1,8.9,45.4,11.1,71.2,6.2c49.8-9.4,86.9-43.7,81-74.8
				C878.1,2102.9,845.5,2085.9,806.4,2085.9z M776.5,2069.3L776.5,2069.3L776.5,2069.3z"/>
		</g>
	</g>
	<g>
		<g>
			<path class="st1" d="M1550.8,3079.9c-8.4,0-16.1-5.4-18.6-13.8c-3.1-10.3,2.7-21.1,13-24.2c146.5-44.1,182.4-183.1,183.9-189
				c2.6-10.4,13.1-16.8,23.5-14.2c10.4,2.6,16.8,13,14.3,23.5c-1.6,6.8-42.2,166.4-210.5,217
				C1554.5,3079.7,1552.6,3079.9,1550.8,3079.9z"/>
		</g>
	</g>
	<g>
		<g>
			<path class="st1" d="M2451.4,3079.3c-1.9,0-3.7-0.3-5.6-0.8c-168.2-50.7-209.5-209.6-211.2-216.4c-2.6-10.4,3.8-21,14.2-23.6
				c10.4-2.6,20.9,3.7,23.6,14.1l0,0c1.5,5.9,38.1,144.4,184.7,188.6c10.3,3.1,16.1,13.9,13,24.2
				C2467.5,3073.9,2459.8,3079.3,2451.4,3079.3z"/>
		</g>
	</g>
	<g>
		<g>
			<path class="st1" d="M2000,2284.6c-10.7,0-19.4-8.7-19.4-19.4v-196c0-10.7,8.7-19.4,19.4-19.4s19.4,8.7,19.4,19.4v196
				C2019.5,2275.9,2010.8,2284.6,2000,2284.6z"/>
		</g>
	</g>
	<g>
		<g>
			<path class="st1" d="M3147,2543.7c-4.5,0-9-1.7-12.5-5C2906,2321.9,2627.7,2224,2624.9,2223c-9.5-3.3-14.6-13.7-11.3-23.2
				c3.3-9.5,13.7-14.6,23.2-11.3c2.9,1,288.6,101.6,522.7,323.7c7.3,6.9,7.6,18.5,0.7,25.8C3156.7,2541.8,3151.8,2543.7,3147,2543.7
				z"/>
		</g>
	</g>
	<g>
		<g>
			<path class="st1" d="M843.3,2543.7c-4.8,0-9.6-1.9-13.2-5.7c-6.9-7.3-6.6-18.8,0.7-25.8c234.1-222.1,519.9-322.7,522.7-323.7
				c9.5-3.3,19.9,1.8,23.2,11.3c3.3,9.5-1.7,19.9-11.3,23.2c-2.8,1-281.4,99.2-509.6,315.7C852.3,2542,847.8,2543.7,843.3,2543.7z"
				/>
		</g>
	</g>
	<g class="st4">
		<g>
			<g>
				<path class="st0" d="M2737.6,1038c82.5,173.3,88,293.2,20.3,302.5c-51.1,7-128.1-170.1-159.2-228.2
					c-31.1-58.1-135.3-220.9-101.4-259.1C2543,801.7,2678.3,913.4,2737.6,1038z"/>
			</g>
		</g>
	</g>
	<g class="st4">
		<g>
			<g>
				<path class="st0" d="M2875.7,1526.2c18.4,103.3,0.1,146.1-32.1,141.1c-24.3-3.8-39.4-96.7-45.6-127.6
					c-6.3-30.8-27.6-118.2-6.8-131C2819.1,1391.4,2856.6,1418.9,2875.7,1526.2z"/>
			</g>
		</g>
	</g>
</g>
</svg>
