<?xml version="1.0" encoding="utf-8"?>
<!-- Generator: Adobe Illustrator 26.1.0, SVG Export Plug-In . SVG Version: 6.00 Build 0)  -->
<svg version="1.1" id="Layer_1" xmlns="http://www.w3.org/2000/svg" xmlns:xlink="http://www.w3.org/1999/xlink" x="0px" y="0px"
	 viewBox="0 0 4000 4000" style="enable-background:new 0 0 4000 4000;" xml:space="preserve">
<style type="text/css">
	.st0{fill:#FFFFFF;}
	.st1{fill:#FFA9A9;}
	.st2{fill:#F9B17B;}
	.st3{fill:#F9AE7B;}
	.st4{opacity:0.5;}
	.st5{fill:#F69164;}
	.st6{fill:#8A5D3B;}
	.st7{fill:#321B0F;}
	.st8{fill:none;stroke:#8A5D3B;stroke-width:35;stroke-linecap:round;stroke-miterlimit:10;}
</style>
<circle class="st0" cx="2000" cy="2000" r="2000"/>
<g>
	<g>
		<path class="st1" d="M2635.2,2729.2H1363.1c-323,0-584.3,262-584.3,584.3v68.6h2441.4v-68.6
			C3219.4,2991.2,2958.2,2729.2,2635.2,2729.2z"/>
	</g>
	<g>
		<g>
			<g>
				<path class="st2" d="M2889.6,1853.2h-1781c-98.3,0-178.2-80-178.2-178.2V1633c0-98.3,80-178.2,178.2-178.2h1781
					c98.3,0,178.2,80,178.2,178.2v41.9C3067.9,1773.2,2987.9,1853.2,2889.6,1853.2z"/>
			</g>
			<g>
				<rect x="1781.3" y="2421.4" class="st3" width="452.5" height="410.6"/>
			</g>
			<g class="st4">
				<path class="st5" d="M2050.2,2074.1c-7.6-2.3-15.2-4.6-22.8-6.1c-49.5-1.5-99,0-148.5,3.8c-32.8,6.1-65.5,12.9-97.5,19.8v501.2
					c67,19.8,121.9,27.4,152.3,31.2c28.9,3.8,61.7,6.1,99,4.6c32-0.8,61.7-3.8,86.8-8.4c22.9-3.1,64.8-9.9,116.6-25.9
					c0-3.1,0-6.1,0-9.1v-482.9C2172.1,2100.8,2108.8,2091.6,2050.2,2074.1z"/>
			</g>
			<g>
				<path class="st2" d="M2116.4,2509.8c-25.9,3.8-56.4,7.6-89.1,8.4c-38.1,0.8-71.6-1.5-101.3-4.6
					c-79.2-8.4-321.5-44.9-511.9-241.5c-36.6-37.3-132.5-138.6-183.6-303.2c-21.3-69.3-33.5-143.2-33.5-220.1v-569
					c0-408.3,331.4-739.7,739.7-739.7h123.4c408.3,0,739.6,331.4,739.6,739.7v569c-1.5,60.9-16,311.6-216.3,523.3
					C2402.1,2462.6,2182,2500.7,2116.4,2509.8z"/>
			</g>
		</g>
		<g>
			<path class="st6" d="M2047.1,1993.3c-1.5,0-2.3,0-3.8,0c-128.7-26.7-187.4-56.4-188.9-96c-1.5-26.7,22.1-41.9,47.2-58.7
				c22.1-14.5,48.8-32,68.6-60.9c30.5-47.2,34.3-112.7,10.7-196.5c-3.1-9.9,3.1-19.8,12.2-22.1c9.1-2.3,19.8,3.1,22.1,12.2
				c26.7,93.7,21.3,169.9-15.2,226.2c-23.6,35-54.8,56.4-78.5,71.6c-13.7,9.1-31.2,20.6-30.5,26.7c0,1.5,3.1,30.5,160.7,62.5
				c9.9,2.3,16,11.4,13.7,21.3C2063.1,1987.2,2055.5,1993.3,2047.1,1993.3z"/>
		</g>
		<g>
			<path class="st7" d="M2855.3,1575.9v-332.1c0-454-361.8-822.7-808.2-822.7H1955c-446.4,0-808.2,367.9-808.2,822.7v335.9h85.3
				c-6.9-106.6-1.5-253.7,51.8-414.4c16-49.5,35-93.7,54.1-133.3c164.5,44.9,392.3,89.1,665.8,88.4c261.3-1.5,480.7-44.2,640.6-88.4
				c16.8,27.4,32.8,57.9,47.2,90.7c76.2,171.4,83,336.7,73.9,451.7L2855.3,1575.9z"/>
		</g>
		<g>
			<ellipse class="st7" cx="2436.4" cy="1658.2" rx="82.3" ry="128.7"/>
		</g>
		<g>
			<ellipse class="st7" cx="1608.4" cy="1658.2" rx="82.3" ry="128.7"/>
		</g>
		<line class="st8" x1="1939.8" y1="2254.5" x2="2057.5" y2="2253.6"/>
	</g>
	<g>
		<path class="st3" d="M1689.1,2728.4c-8.4,11.4-12.9,23.6-12.9,35.8c0,70.8,144.7,128,323,128s323-57.1,323-128
			c0-12.2-4.6-24.4-12.9-35.8H1689.1z"/>
	</g>
	<g>
		<g>
			<g>
				<path class="st7" d="M2588,1419.8c-86.1-22.8-175.2-38.1-266.6-44.2c-26.7-1.5-47.2-23.6-45.7-49.5l0,0
					c1.5-25.9,25.9-46.5,54.9-44.2c96.7,6.9,192,22.8,283.4,47.2c26.7,6.9,41.9,33.5,33.5,58.7l0,0
					C2639,1412.9,2613.1,1426.6,2588,1419.8z"/>
			</g>
		</g>
		<g>
			<g>
				<path class="st7" d="M1740.9,1380.1c-91.4,3.8-180.5,16-267.4,36.6c-25.1,6.1-51-9.1-57.9-33.5l0,0c-6.9-25.1,8.4-51,35.8-57.1
					c92.2-21.3,187.4-35,284.1-38.8c28.2-1.5,52.6,19.8,52.6,45.7l0,0C1788.1,1358.1,1766.8,1378.6,1740.9,1380.1z"/>
			</g>
		</g>
	</g>
</g>
</svg>
