<?xml version="1.0" encoding="utf-8"?>
<!-- Generator: Adobe Illustrator 26.1.0, SVG Export Plug-In . SVG Version: 6.00 Build 0)  -->
<svg version="1.1" id="Слой_1" xmlns="http://www.w3.org/2000/svg" xmlns:xlink="http://www.w3.org/1999/xlink" x="0px" y="0px"
	 viewBox="0 0 300 299.3" style="enable-background:new 0 0 300 299.3;" xml:space="preserve">
<style type="text/css">
	.st0{fill:#FFFFFF;}
</style>
<circle class="st0" cx="150" cy="150" r="150"/>
<g>
	<path d="M104.57,135.86c-4.22,2.1-7.9,3.96-11.6,5.76c-0.27,0.13-0.71-0.08-1.4-0.17c0.54-0.5,0.83-0.88,1.22-1.11
		c3.42-2.08,6.77-4.32,10.32-6.15c3.43-1.76,6.23-4.04,8.73-6.98c5.94-6.97,12.55-13.26,19.94-18.7c1.86-1.37,2.2-2.41,1.68-4.72
		c-3.53,2.71-4.72,7.84-10.1,9.2c0.59-0.95,0.98-1.5,1.3-2.09c2.65-4.71,5.18-9.48,7.96-14.11c2.7-4.49,5.35-9.06,8.56-13.18
		c3.52-4.53,7.81-4.78,12.44-1.32c2.01-3.13,5.22-2.94,8.29-2.55c2.93,0.37,6.4,0.13,7.17,3.9c2.27-0.35,4.27-0.9,6.28-0.91
		c4.07-0.01,7.6,2.86,7.6,6.92c-0.01,6.61,3.28,11.73,6.48,16.97c1,1.64,2.11,3.22,3.38,5.15c-5.54-1.07-6.47-6.57-10.08-9.12
		c-1.79,2.85-1.45,5.02,0.98,7.87c8.6,10.13,19.35,17.39,31.01,23.48c3.38,1.76,6.56,3.9,10.13,6.05
		c-2.23,0.74-12.53-3.62-22.81-10.16c-7.02-4.47-13.47-9.84-20.73-15.23c1.36,1.95,2.16,3.8,3.55,4.96
		c4.55,3.81,9.34,7.33,13.98,11.04c1.58,1.27,2.99,2.75,4.24,4.42c-6.59-2.67-12.16-6.85-17.82-11.54
		c4.17,12.81,11.09,23.01,22.94,29.22c17.56,9.2,33.17,21.06,47.56,34.6c2.58,2.43,5.11,4.92,7.66,7.39
		c-0.11,0.18-0.23,0.35-0.34,0.53c-76.86,0-153.71,0-231.17,0c1.72-1.9,3.08-3.6,4.64-5.09c5.76-5.5,12.72-9.17,19.68-12.86
		c7.79-4.13,15.8-7.97,23.13-12.81c8.52-5.63,14.42-14.03,20.4-22.19C101.24,140.32,102.75,138.32,104.57,135.86z M179.49,90.94
		c-0.08-3.91-1.87-5.68-5.46-5.59c-2.91,0.07-5.09,1.6-5.85,4.54c-0.87,3.36-1.5,6.79-2.13,10.21c-0.51,2.8-0.85,5.62-1.27,8.43
		c-0.66-0.96-1.04-1.91-0.97-2.83c0.31-4.05,0.59-8.12,1.22-12.12c0.3-1.93-0.03-2.79-1.99-2.96c-1.41-0.12-2.81-0.35-4.21-0.53
		c-0.03-0.22-0.06-0.43-0.08-0.65c2.47-0.43,4.95-0.85,7.43-1.28c0.02-4.08-0.81-5.05-4.89-5.57c-5.08-0.65-5.69-0.28-6.9,4.74
		c-1.98,8.21-2.29,16.58-2.26,24.98c0,0.52-0.08,1.03-0.12,1.55c-0.47-0.32-0.61-0.63-0.71-0.96c-1.61-5.47-1.15-11.01-0.62-16.56
		c0.11-1.18,0.55-2.6,0.06-3.47c-0.47-0.85-1.94-1.14-3.3-1.85c1.1-0.44,2.05-0.75,2.92-1.2c0.53-0.27,1.21-0.71,1.34-1.2
		c0.41-1.54-1.07-4.51-2.59-5.37c-1.89-1.08-3.58-0.49-5.11,0.8c-2.69,2.27-4.33,5.23-5.51,8.48c-1.64,4.51-1.73,9.13-0.98,13.82
		c0.8,5.04,1.47,10.1,2.29,15.14c0.24,1.47,0.94,2.59,2.85,2.33c2.71-0.37,5.44-0.54,8.26-0.81c-0.09,2.16,1.62,2.22,3.58,1.98
		c0.73-0.09,1.48-0.08,2.22-0.04c2.26,0.12,4.61,0.46,5.21-2.99c2.62,2.97,5.14,1.22,7.51,0.56c1.12-0.31,2.38-1.24,2.94-2.24
		c3.7-6.66,6.07-13.81,7.3-21.34c0.59-3.58-0.78-5.88-4.29-6.86c-0.99-0.28-2.03-0.39-3.22-0.61
		C174.72,89.9,175.64,89.84,179.49,90.94z M175.88,177.22c1.07-3.45,2.1-6.54,2.98-9.67c1.69-5.98-0.57-9.08-6.7-9.44
		c-2.51-0.15-5.13-0.1-7.5-0.8c-6.8-2.02-13.51-4.35-20.24-6.61c-2.9-0.97-5.75-1.82-8.9-1.27c-4.7,0.82-7.76,3.9-10.48,7.38
		c-5.91,7.57-12.02,14.85-20.38,19.98c-3.57,2.19-3.69,5.56-0.88,8.71c1.82,2.05,3.81,3.96,5.74,5.9c2.8,2.82,3.62,2.81,6.62,0.06
		c4.68-4.29,7.69-9.74,10.78-15.17c1.94-3.41,3.95-6.81,6.29-9.95c2.51-3.37,6.12-4.3,10.15-3.16c1.56,0.44,3.11,1.04,4.52,1.82
		c4.09,2.26,8.12,4.62,12.15,6.98C164.96,174.88,170.25,176.57,175.88,177.22z M116.66,192.92c0.06,0.2,0.12,0.39,0.19,0.59
		c6.22,0,12.44-0.04,18.66,0.03c1.85,0.02,3.27-0.26,4.17-2.16c0.45-0.93,1.45-1.69,2.36-2.3c4.46-2.98,9.39-2.21,13.24,2.28
		c1.42,1.66,2.9,2.25,4.99,2.18c4.15-0.15,8.31-0.14,12.47-0.14c6.01,0.01,12.03,0.08,18.04,0.1c2.41,0.01,2.68-0.28,1.92-2.58
		c-0.69-2.1-1.6-4.14-2.49-6.17c-1.88-4.26-5.15-6.05-9.84-6.27c-5.08-0.23-10.27-0.63-15.16-1.92c-4.97-1.32-9.62-3.81-14.4-5.8
		c-9.47-3.92-13.98-2.8-19.88,5.5C126.65,182.24,122.46,188.25,116.66,192.92z M174.99,142.65c0.1-0.02,0.2-0.05,0.29-0.07
		c1.66,4.25,3.39,8.47,4.94,12.76c0.3,0.82,0.24,2.04-0.17,2.78c-0.89,1.57-0.59,2.8,0.53,4.18c1.67-2.69,1.84-5.4,0.89-8.32
		c-2.21-6.76-4.42-13.52-6.46-20.33c-0.56-1.88-1.43-2.52-3.31-2.28c-6.1,0.78-12.25,1.21-18.3,2.27
		c-18.23,3.18-35.96,8.14-53.06,15.33c-3.4,1.43-5.94,3.54-7.93,6.45c-0.46,0.67-0.6,1.79-0.43,2.61
		c1.33,6.54,2.77,13.05,4.16,19.57c0.59,2.75,2.14,4.66,5.3,6.16c-0.49-1.53-0.51-2.92-1.14-3.31c-2.34-1.45-2.76-3.66-3.12-6.07
		c-0.56-3.73-1.26-7.43-1.91-11.14c1.58,2.32,2.69,4.81,4.01,7.19c2.37,4.25,6.56,4.95,10.25,1.97
		c6.35-5.13,11.33-11.48,16.37-17.83c4.16-5.25,9.69-7.45,16.4-5.47c2.55,0.75,5.09,1.61,7.56,2.6c6.15,2.46,12.38,4.45,19.01,5.27
		c2.32,0.29,3.87-0.37,4.88-2.1c0.82-1.41,1.41-3.12,1.52-4.74C175.44,147.64,175.11,145.13,174.99,142.65z M135.35,108.44
		c-4.82,4.17-9.55,7.49-13.31,11.69c-5.89,6.57-11.12,13.73-16.02,19.88c16.16-4.48,33.23-9.22,49.9-13.84
		c-1.83-0.34-4.76,1.42-6.01-1.49c-3.1,0.26-6.02,0.63-8.93,0.65c-0.73,0-1.83-1.01-2.11-1.8c-0.67-1.86-0.94-3.87-1.38-5.82
		C136.82,114.79,136.14,111.88,135.35,108.44z M193.98,161.32c-1.87,6.23-3.71,12.32-5.5,18.42c-0.12,0.42,0.03,1.05,0.3,1.42
		c1.19,1.68,2.46,3.29,3.82,5.09c2.89-5.93,5.31-11.86,5.65-18.43C198.42,164.53,197.11,162.63,193.98,161.32z M186.79,150.51
		c-0.39-2.1-0.51-4.3-1.22-6.29c-1.41-3.95-3.09-7.8-4.75-11.65c-0.76-1.77-2.29-1.48-3.56-0.75c-0.52,0.3-1.04,1.42-0.87,1.96
		c2.05,6.71,4.24,13.37,6.34,20.06c0.45,1.44,1.34,1.42,2.38,0.91C186.9,153.87,186.91,152.23,186.79,150.51z M90.93,157.79
		c-4.09,2.47-5.79,5.28-4.24,9.37c0.03,0.07,0.01,0.15,0.03,0.22c1.28,3.61,2.53,7.23,3.87,10.81c0.59,1.58,1.98,1.41,3.19,0.98
		c0.51-0.18,1.22-1.04,1.14-1.45C93.68,171.15,92.32,164.59,90.93,157.79z M177.19,176.75c2.9,1,4.05,0.26,4.64-1.92
		c1.25-4.56,2.61-9.09,4.03-13.6c0.68-2.17-0.08-3.22-2.52-3.6C181.32,163.96,179.27,170.31,177.19,176.75z M184.63,156.12
		c-0.01,0.21-0.01,0.41-0.02,0.62c1.99,0.77,3.94,1.69,5.99,2.27c7.5,2.13,8.24,2.95,8.85,10.55c0.01,0.07,0.07,0.13,0.11,0.19
		c2.09-3.58,0.81-9.88-2.44-12.07c-2.39-1.61-5.22-2.8-8.02-3.44C187.82,153.95,186.13,155.44,184.63,156.12z M109.97,193.1
		c-4.87-4.25-9.33-8.15-13.89-12.13c-0.71,0.92-1.24,1.61-1.79,2.33c0.2,0.31,0.33,0.59,0.53,0.79c2.29,2.32,4.74,4.51,6.86,6.98
		C103.81,193.55,106.36,193.72,109.97,193.1z M94.78,180.85c-0.1-0.2-0.19-0.39-0.29-0.59c-1.65,0.14-3.5-0.16-4.91,0.49
		c-3.45,1.59-6.17,7.3-5.59,11.11c0.09,0.56,0.7,1.05,1.07,1.57c0.48-0.43,1.07-0.78,1.41-1.3c1.2-1.83,2.19-3.8,3.48-5.56
		C91.44,184.57,93.16,182.75,94.78,180.85z M155.13,193.6c0.1-0.24,0.2-0.47,0.3-0.71c-2.3-2.94-4.97-5.18-9.12-4.57
		c-3.03,0.45-5.3,1.92-6.83,5.25c3.54-0.66,6.82,0.86,9.8-1.41c0.53-0.41,1.9,0.19,2.85,0.44
		C153.15,192.86,154.13,193.26,155.13,193.6z M92.75,193.31c-0.91-1.03-1.52-1.82-2.25-2.5c-0.49-0.46-1.14-0.75-1.71-1.12
		c-0.37,0.61-0.83,1.18-1.08,1.84c-0.2,0.51-0.13,1.11-0.2,1.79C89.23,193.31,90.79,193.31,92.75,193.31z"/>
	<path d="M196.4,113.57c14.97,13.55,32.71,22.77,50.17,32.41c-0.09,0.19-0.17,0.37-0.26,0.56c-1.07-0.33-2.18-0.57-3.2-1.02
		c-12.6-5.6-25.32-11.05-36.24-19.67c-3.86-3.05-7.07-6.92-10.55-10.44c-0.27-0.28-0.35-0.74-0.52-1.12
		C196,114.05,196.2,113.81,196.4,113.57z"/>
	<path d="M120.72,115.29c-0.37,0.56-0.7,1.15-1.11,1.67c-4.22,5.35-9.29,9.73-14.99,13.45c-10.78,7.05-22.43,12.33-34.33,17.13
		c-0.39,0.16-0.82,0.2-1.43-0.17c8.89-4.94,18-9.54,26.61-14.93c8.57-5.37,16.65-11.53,24.95-17.34
		C120.52,115.17,120.62,115.23,120.72,115.29z"/>
	<path d="M170.62,141.02c-0.34,2.33-0.55,4.71-1.06,7.01c-0.67,3.02-2.62,4.2-5.61,3.41c-4.01-1.05-7.96-2.32-11.97-3.38
		c-3.5-0.93-7.05-1.68-10.57-2.53c-0.93-0.23-1.99-0.33-2.74-0.84c-0.83-0.57-1.8-1.51-1.89-2.38c-0.06-0.59,1.17-1.75,1.99-1.94
		c3.75-0.85,7.57-1.39,11.34-2.15c5.66-1.14,11.31-2.33,16.95-3.59c1.8-0.4,2.69,0.18,2.93,1.95
		C170.19,138.04,170.4,139.5,170.62,141.02z"/>
	<path d="M127.12,143.35c0.67,0.41,1.65,0.68,1.75,1.15c0.19,0.86,0.06,1.91-0.29,2.72c-0.3,0.69-1.1,1.16-1.68,1.74
		c-4.96,4.98-9.98,9.91-14.86,14.97c-4.57,4.74-6.82,4.75-10.73-0.57c-1.56-2.13-2.79-4.53-3.97-6.91c-1.11-2.22-0.74-2.93,1.7-3.74
		c7.72-2.57,15.45-5.1,23.17-7.66C123.81,144.52,125.4,143.95,127.12,143.35z"/>
</g>
</svg>
