<?xml version="1.0" encoding="utf-8"?>
<!-- Generator: Adobe Illustrator 26.1.0, SVG Export Plug-In . SVG Version: 6.00 Build 0)  -->
<svg version="1.1" id="Слой_1" xmlns="http://www.w3.org/2000/svg" xmlns:xlink="http://www.w3.org/1999/xlink" x="0px" y="0px"
	 viewBox="0 0 300 299.3" style="enable-background:new 0 0 300 299.3;" xml:space="preserve">
<style type="text/css">
	.st0{fill:#FF0000;}
	.st1{fill:#FFFFFF;}
	.st2{fill:none;}
</style>
<g>
	<circle class="st0" cx="150" cy="150" r="149"/>
	<path d="M150,2c39.5,0,76.7,15.4,104.7,43.3c28,28,43.3,65.1,43.3,104.7s-15.4,76.7-43.3,104.7c-28,28-65.1,43.3-104.7,43.3
		s-76.7-15.4-104.7-43.3C17.4,226.7,2,189.5,2,150S17.4,73.3,45.3,45.3C73.3,17.4,110.5,2,150,2 M150,0C67.2,0,0,67.2,0,150
		s67.2,150,150,150s150-67.2,150-150S232.8,0,150,0L150,0z"/>
</g>
<g>
	<path d="M47.1,135.1c-4.1-1.4-4.1-1.4-4-5.9c0-0.7,0.1-1.3,0.1-2c0.2-2.1,0.9-2.8,2.9-2.8c1.3,0,1.6-0.5,1.8-1.7
		c0.9-5.3,1.9-10.6,3-15.9c0.5-2.5,1.1-3,3.7-3.1c2-0.1,4.1-0.1,6.1-0.2c1.6-0.1,2.2-0.7,2-2.3c-0.4-3.4,0.2-6.5,1.7-9.6
		c0.8-1.7,0.8-3.8,0.9-5.8c0.5-8,1.2-16,3.4-23.8c2.2-7.9,5.5-15.1,11.7-20.7c3.9-3.6,8.7-5.8,13.5-7.8c11.5-4.8,23.5-7.5,35.9-8
		c11.7-0.5,23.5-0.7,35.2-0.6c13.7,0.1,27,2.9,39.8,7.8c14.7,5.6,23.3,16.1,26.5,31.3c1.3,6.5,1.9,13.2,2.7,19.8
		c0.2,1.7,0.2,3.4,0.5,5.1c0.2,1.2,0.6,2.4,1.2,3.4c1.3,2.2,1.3,4.5,1.3,6.9c0,4.1-0.1,4.1,3.9,4.2c1.7,0.1,3.4,0.2,5.1,0.3
		c1.7,0.1,2.8,0.9,3.1,2.6c1.1,5.5,2.2,10.9,3.2,16.4c0.2,1.1,0.6,1.5,1.7,1.4c1.8,0,2.8,0.8,2.9,2.7c0.1,1.7,0.1,3.4,0,5.1
		c-0.1,1.5-1.1,2.2-2.4,2.3c-1.5,0.2-1.8,1-1.9,2.3c-0.4,4.3-0.9,8.7-1.5,13c-0.2,1.4,0.1,2.2,1.4,2.9c6.5,3.2,11.8,7.8,15.6,14.1
		c5.2,8.6,2.7,25-6.8,31.3c-1,0.7-1.9,1.7-2.5,2.7c-4.3,7.6-9.4,14.7-15.1,21.3c-1.4,1.6-1.9,3.3-2,5.4
		c-0.2,13.8-5.3,25.8-14.2,36.1c-5.4,6.2-12.5,9.1-20.4,10.2c-11.2,1.7-22.3,1.2-33.2-2c-3.4-1-6.6-2.9-9.7-4.7
		c-1.4-0.8-2.3-2.5-3.5-3.6c-1.2-1.2-2.4-2.5-3.8-3.2c-3.3-1.5-6.8-1.9-10.3-1.2c-2.3,0.4-4.5,1.3-5.7,3.3
		c-3.7,6.7-10.1,9.3-17,10.9c-10.9,2.5-21.9,2.8-32.8,0.9c-10-1.8-17.6-7.2-23-15.8c-6.1-9.7-9.9-20.1-9.7-31.8c0-0.9-0.4-2-0.9-2.7
		c-1.9-2.7-4.1-5.2-6-7.9c-3.3-4.8-6.5-9.7-9.8-14.5c-0.7-1-1.4-2.1-2.3-2.7c-7.5-5.4-10.2-13-10-21.9c0.2-8.1,4.5-14.1,10.8-18.8
		c2.5-1.9,5.3-3.4,7.9-5.2c0.5-0.4,1-1.2,1-1.8C48.4,145.7,47.7,140.5,47.1,135.1z M161.4,248.5c-0.1,0.2-0.1,0.3-0.2,0.5
		c0.5,0.3,0.9,0.6,1.4,0.8c1.5,0.6,1.8,1.5,1.4,3c-0.6,1.9-0.9,3.8-1.4,5.8c-0.6,2.4,0,4.5,1.8,6c2,1.7,4.2,3.3,6.5,4.3
		c5.3,2.3,11.1,3.1,16.8,3.7c6.8,0.7,13.5,0.1,20.2-1c9.7-1.5,17.2-6.1,22.3-14.5c1.9-3.2,3.7-6.6,5.2-10.1
		c3.8-8.9,5.8-18.1,3.9-27.9c-2.2-11-7.5-19-19.2-21.8c-5.7-1.4-11.3-3.6-16.8-5.9c-10.5-4.5-19.4-11.5-27.8-19.1
		c-5.2-4.7-10.6-9.1-17.1-11.9c-3.4-1.5-7-2.2-10.8-1.7c-5.2,0.7-9.8,2.9-13.9,6c-4.1,3.2-8,6.5-12,9.9c-7.9,6.9-16,13.4-25.8,17.4
		c-6.2,2.6-12.7,4.6-19,6.8c-5.1,1.7-9.5,4.3-12.1,9.1c-4.4,8-6.1,16.5-4.7,25.7c1.4,8.7,4.9,16.7,9.4,24.1
		c4.4,7.3,10.7,12.1,19.2,14c11.9,2.7,23.8,2.5,35.6-0.5c3.8-1,7.3-2.3,10.4-4.7c2.8-2.2,4-4.9,3-8.4c-0.5-1.6-0.8-3.3-1.3-5
		c-0.3-1.2-0.1-2.1,1.2-2.7c0.6-0.3,1.1-0.8,1.6-1.2c-0.9-0.2-1.6-0.1-2.4,0c-2.1,0.3-2.3,0.2-2.9-1.8c-1.2-4.1-2.4-8.2-3.6-12.4
		c-0.6-2.2-0.6-2.5,1.7-2.9c1.8-0.4,2.3-1.3,2.2-3c-0.1-2.3-0.1-4.6-0.2-6.9c0-1.4,0.7-2,2-2c0.8,0,1.5,0,2.3,0c1,0,1.4-0.5,1-1.5
		c-0.5-1-0.9-2-1.4-3c-0.6-1.1-0.6-2.3,0.4-3c1.6-1.2,3.2-2.2,5-3.1c1.4-0.7,2.6-0.1,3.6,1.2c0.9,1.3,2,2.4,3.1,3.7
		c1.3-1.5,2.4-3,3.6-4.2c0.6-0.6,1.7-1.2,2.4-1c1.7,0.5,3.5,1.2,4.8,2.2c2.1,1.6,2.1,2.5,0.9,4.9c-1.6,3.3-1.6,3.3,2,3.4
		c1.9,0,2.3,0.5,2.4,2.4c0,1.9,0.1,3.9-0.1,5.8c-0.2,1.9,0.3,3.1,2.4,3.5c1.4,0.3,1.9,1.3,1.5,2.8c-1.3,4.5-2.6,9-3.8,13.5
		c-0.3,1-0.9,1.3-1.9,1.1C163.5,248.7,162.4,248.6,161.4,248.5z M232.5,90.5c0-0.6,0.1-1.3,0-2c-0.9-7.6-1.4-15.2-2.7-22.7
		c-2.9-15.9-11.9-26.7-27.4-32.1c-11.6-4-23.4-6.4-35.6-6.9c-14-0.6-28-0.5-41.9,1c-10.3,1.1-20.3,3.6-30,7.3
		c-11.3,4.3-19,11.9-22.9,23.3c-3.5,10.3-4.2,21-4.5,31.7c0,0.2,0.1,0.4,0.1,0.4C122.5,81.6,177.4,81,232.5,90.5z M84.9,194.7
		c2.8-1.4,5.4-2.9,8.1-4.2c7.7-3.7,14.4-8.8,20.4-15c6-6.3,12-12.6,18-18.9c3.2-3.3,6.7-6.2,10.9-8.1c5.2-2.5,10.5-2.7,15.5,0.1
		c3.5,1.9,6.9,4.2,9.8,6.9c5.7,5.4,11.2,11.1,16.4,17c8.3,9.4,18.3,16.3,29.8,21.1c1.1,0.5,1.6,0.3,2.2-0.8c2.6-4.8,5.4-9.5,8-14.2
		c1.3-2.3,2.5-4.6,3.6-7c1.1-2.5,1.5-5.2,1-7.9c-1-5.2-4.7-7.6-9.4-9.1c-4.9-1.6-9.7-3.2-14.4-5.2c-9.3-4-17.3-10-25.3-16.1
		c-5.5-4.2-10.9-8.7-17.2-11.9c-8.2-4.2-16.6-4.7-24.6,0.1c-5.9,3.5-11.5,7.7-17.1,11.8c-8.1,6-16,12.2-25.2,16.2
		c-5.1,2.2-10.4,3.9-15.6,5.8c-4.4,1.5-7.5,4.3-8.6,8.9c-0.8,3.2,0.2,6.3,1.6,9.1c2.2,4.5,4.8,8.8,7.3,13.1
		C81.7,189.1,83.3,191.9,84.9,194.7z M68.3,122.4c0.1,0,0.2,0,0.3,0c1,5.4,2.1,10.9,3.1,16.3c0.9,5.2,3.4,9.2,8.1,11.7
		c0.7,0.4,1.3,0.9,2,1.1c0.8,0.3,1.7,0.5,2.4,0.3c1.9-0.5,3.8-1.2,5.6-1.9c11-4.2,20.5-11,29.9-17.9c5.9-4.4,11.5-9.1,18.1-12.4
		c4.4-2.2,8.9-3.3,13.9-2.9c5.6,0.4,10.5,2.5,15,5.6c6.9,4.7,13.6,9.5,20.4,14.4c8.7,6.3,17.9,11.6,28.2,14.9
		c0.7,0.2,1.6,0.5,2.2,0.3c4.7-2,8.6-5,10-10.3c0.7-2.5,1.2-5.1,1.7-7.7c0.7-3.5,1.4-7,2.1-10.5c0.5,3.1,0.7,6.2,0.9,9.2
		c0.5,5.1,0.9,10.2,1.6,15.3c0.6,4.1,1.4,8-2,11.3c-2.9,2.8-0.8,5.9-0.7,8.9c1.8-2.3,3.6-4.6,5-7c1.5-2.7,1.9-5.7,1.5-8.8
		c-0.3-3-0.7-5.9-0.8-8.9c-0.4-12.8-0.7-25.7-1-38.5c0-1.7-0.6-2.3-2.2-2.6c-6.3-1.1-12.5-2.5-18.8-3.4c-7.1-1-14.2-1.8-21.3-2.5
		c-6.6-0.6-13.3-0.8-20-1.1c-8.9-0.3-17.9-0.9-26.8-0.7c-18.2,0.3-36.4,0.8-54.4,3.5c-8.6,1.3-17.1,2.9-25.6,4.5
		c-2.6,0.5-2.6,0.7-2.7,3.3c0,6.4,0.1,12.9-0.2,19.3c-0.4,9.7-1.1,19.5-1.6,29.2c-0.3,5.8,3.1,9.8,6.6,14.3c0.2-1.7,0.2-3.1,0.5-4.3
		c0.5-1.9,0-3.2-1.3-4.6c-2.2-2.4-2.8-5.3-2.3-8.5c0.3-2.6,0.7-5.1,0.9-7.7c0.4-5.4,0.7-10.8,1.1-16.2
		C67.9,125.8,68.1,124.1,68.3,122.4z M241.8,221c0.7-0.9,1.6-1.9,2.3-2.9c5.4-7.1,10.9-14.3,14.8-22.4c2-4.2,3.8-8.5,4.1-13.3
		c0.3-4.1-2.4-9.2-6-11c-0.1,0.1-0.2,0.2-0.2,0.3c-5.8,11.6-12.6,22.7-19.5,33.6c-0.7,1.1-0.6,2-0.1,3.1
		C238.8,212.6,240.3,216.7,241.8,221z M58.1,221.9c0.2-0.1,0.3-0.1,0.5-0.2c0.1-0.2,0.1-0.5,0.2-0.7c1.2-3.9,2.3-7.8,3.8-11.5
		c0.6-1.5,0.6-2.5-0.3-3.8c-6.7-10.3-13.1-20.9-18.4-32c-0.3-0.6-0.6-1.1-1-1.8c-2.6,2.2-4.9,4.4-5.6,7.8c-0.8,3.7,0,7.3,1.2,10.7
		c2.6,7,6.3,13.4,10.5,19.5C51.9,213.9,55,217.8,58.1,221.9z M237.7,114.8c-0.1,0-0.1,0-0.2,0c0.4,9,0.8,18,1.3,27.1
		c0.2,3.6,0.6,7.2,0.9,10.9c0.2,2.1,0.5,2.3,2.4,2c1.2-0.2,2.5-0.4,3.8-0.5c1.2-0.1,2.1-0.7,2.3-2c0.6-2.7,1.3-5.4,1.6-8.1
		c1.6-12.6,0.4-24.9-2.9-37.1c-0.3-1.1-0.9-1.5-2-1.5c-1.9,0-3.9,0-5.8,0c-1.3-0.1-1.6,0.5-1.6,1.7
		C237.8,109.7,237.7,112.2,237.7,114.8z M62.5,114.7c-0.1,0-0.3,0-0.4,0c0-2.5,0-5,0-7.4c0-1.1-0.4-1.5-1.4-1.5
		c-1.9,0-3.9,0.1-5.8,0.1c-1.1,0-1.8,0.5-2,1.5c-0.4,1.8-0.9,3.5-1.2,5.3c-1.5,8.7-2.7,17.5-2.1,26.4c0.3,4.5,1.2,8.9,1.9,13.3
		c0.1,0.7,1,1.7,1.7,1.9c1.7,0.5,3.6,0.6,5.4,0.9c1,0.1,1.4-0.3,1.5-1.3c0.2-2.8,0.5-5.6,0.7-8.4C61.4,135.3,62,125,62.5,114.7z
		 M218,194.7c1.9,0.6,3.5,1.2,5.2,1.5c0.6,0.1,1.5-0.1,1.9-0.6c1.1-1.3,2-2.6,2.8-4.1c5.4-9.1,10.7-18.2,16.1-27.3
		c0.4-0.6,1-1.3,0-2c-1.5-1.1-2.9-2.2-4.3-3.2C231.9,170.6,223.4,181.6,218,194.7z M60.2,159.5c-1.1,0.8-2.3,1.8-3.6,2.7
		c-1.1,0.7-1.3,1.4-0.6,2.6c5.7,9.4,11.2,18.9,17,28.3c3.1,4.9,1.5,4.2,7.3,2.7c1.9-0.5,1.9-0.6,1.1-2.5
		c-3.3-7.4-7.4-14.3-12.2-20.9C66.2,168.2,63.3,163.9,60.2,159.5z M58.6,157.6c-2.9-0.9-5.7-1.8-8.6-2.6c-0.5-0.1-1.2,0-1.7,0.3
		c-2.5,1.5-5.1,2.9-7.4,4.6c-3.8,2.7-7.1,6-8.5,10.6c-2.3,7.3-1.3,14.4,2.6,21c0.7,1.1,1.7,2,2.6,3c0.1-0.1,0.2-0.2,0.4-0.3
		c-0.6-1.7-1.2-3.4-1.8-5.1c-2.5-7.7-0.7-13.9,5.9-18.8c2.5-1.9,5.3-3.4,7.8-5.3c2.8-2.1,5.5-4.4,8.2-6.6
		C58.3,158.2,58.5,157.8,58.6,157.6z M241.4,157.3c0.2,0.3,0.5,0.7,0.9,1.1c3.3,2.5,6.6,5.1,10,7.6c1.3,1,2.8,1.8,4.2,2.7
		c8.1,5.2,10.4,11.9,7.2,20.9c-0.5,1.5-1,3-1.5,4.4c0.1,0.1,0.2,0.1,0.4,0.2c0.7-0.9,1.6-1.6,2.2-2.6c4-6.4,5.3-13.4,3-20.5
		c-2.6-8.4-9.4-12.8-16.8-16.4c-0.3-0.1-0.7-0.1-1,0C247.2,155.5,244.4,156.4,241.4,157.3z M66,185.7c-3.1,1.9-6.2,3.6-9.1,5.6
		c-1.8,1.3,0.2,2.4,0.7,3.4c0.4,0.8,0.8,2.3,2.4,1.4c2.7-1.6,5.4-3.2,8-4.9c0.4-0.2,0.7-1.2,0.5-1.5C67.8,188.3,66.9,187.1,66,185.7
		z M230.9,190.1c3.3,1.9,6.2,4.1,9.5,5.5c1.9,0.8,1.9-1.9,2.8-2.9c0.6-0.6,0.9-1.4-0.2-2.1c-2.7-1.6-5.4-3.2-8.1-4.8
		c-0.3-0.2-1.2,0-1.5,0.3C232.6,187.4,231.8,188.7,230.9,190.1z M62.3,179.6c-3.1,1.9-6.2,3.6-9.1,5.5c-0.3,0.2-0.5,1.1-0.3,1.4
		c0.8,1.2,1.7,2.4,2.6,3.5c0.1,0.1,0.7-0.3,1-0.5c1.9-1.1,3.8-2.3,5.7-3.4c1-0.6,1.9-1.2,3-1.8C64.2,182.6,63.3,181.2,62.3,179.6z
		 M245,189.9c0.7-1.3,1.3-2.5,2-3.6c0.5-0.9,0.3-1.4-0.5-1.9c-1.6-0.9-3.2-1.9-4.8-2.9c-4.2-2.5-4.2-2.5-6.5,1.9
		c0,0.1-0.1,0.2-0.1,0.5C238.3,185.9,241.6,187.8,245,189.9z M61.4,177.8c-0.6-0.9-1.2-1.8-1.7-2.8c-0.5-1-1.1-1.2-2.1-0.5
		c-1.9,1.2-3.8,2.3-5.7,3.5c-3.2,2-3.1,1-1.2,4.7c0.5,0.9,0.9,1,1.8,0.5C55.4,181.4,58.4,179.7,61.4,177.8z M241.1,173.3
		c-0.5,0.8-1,1.6-1.5,2.4c-0.9,1.2-0.7,2,0.6,2.7c1.9,1,3.7,2.2,5.5,3.3c3,1.8,3,1.8,4.5-1.3c0.4-0.8,0.4-1.4-0.5-1.9
		C247,176.9,244.1,175.1,241.1,173.3z M59.8,198.2c0.6,1.1,1.1,2.1,1.8,2.9c0.2,0.3,1,0.6,1.3,0.4c3.2-1.9,6.4-3.8,9.7-5.9
		c-0.7-1.1-1.2-2-1.9-2.9c-0.2-0.3-1-0.5-1.3-0.3C66.1,194.4,63,196.3,59.8,198.2z M230,191.6c-0.5,0.7-0.9,1.4-1.3,2
		c-0.9,1.2-0.8,2,0.6,2.7c2.1,1.1,4,2.4,6,3.7c3.2,1.9,2.4,1.8,4.3-1.1c0.5-0.8,0.4-1.3-0.4-1.7C236.2,195.3,233.1,193.5,230,191.6z
		 M251.9,177.4c0.5-0.8,1-1.5,1.2-2.3c0.1-0.4,0-1.2-0.3-1.4c-2.9-1.8-5.9-3.6-9-5.5c-0.5,0.9-1,1.5-1.2,2.2
		c-0.1,0.5,0.1,1.4,0.4,1.6C245.9,173.9,248.9,175.6,251.9,177.4z M48.2,177.9c3.3-2,6.5-4,9.8-6c-0.3-0.6-0.6-1.1-0.8-1.6
		c-0.5-1.4-1.2-1.5-2.5-0.7c-1.9,1.3-3.9,2.4-5.9,3.6c-2.3,1.4-2.3,1.4-1.1,3.8C47.8,177.4,47.9,177.6,48.2,177.9z M246,164.3
		c-0.4,0.6-0.9,1.2-1,1.9c-0.1,0.4,0.2,1.1,0.5,1.3c2.4,1.5,4.9,3,7.3,4.4c0.7,0.4,1.4,1,2-0.2c0.5-0.9,0.7-1.6-0.4-2.3
		c-2.4-1.4-4.7-3-7.1-4.5C247,164.7,246.7,164.6,246,164.3z M53.9,164.4c-2.6,1.7-5,3.3-7.5,4.9c-2.1,1.4-2.1,1.6-0.6,3.8
		c2.9-1.8,5.8-3.5,8.7-5.3c0.3-0.2,0.5-1.1,0.4-1.6C54.8,165.6,54.3,165.1,53.9,164.4z M235.7,204.7c0.3-0.5,0.7-1,1.2-1.8
		c-3.5-2.1-6.8-4.2-10.1-6.2c-0.1,0.1-0.2,0.3-0.3,0.4C229.6,199.6,232.6,202.1,235.7,204.7z M73.4,197.7c0-0.1-0.1-0.2-0.1-0.3
		c-0.5,0.2-0.9,0.4-1.4,0.7c-2.4,1.5-4.8,2.9-7.1,4.4c-1.8,1.1-1.9,1.4-0.5,2.7C67.4,202.7,70.4,200.2,73.4,197.7z"/>
	<path class="st1" d="M161.4,248.5c1,0.1,2,0.2,3,0.3c0.9,0.1,1.6-0.1,1.9-1.1c1.2-4.5,2.5-9,3.8-13.5c0.4-1.5-0.1-2.5-1.5-2.8
		c-2.1-0.4-2.5-1.6-2.4-3.5c0.2-1.9,0.1-3.9,0.1-5.8c0-1.9-0.5-2.3-2.4-2.4c-3.7-0.1-3.7-0.1-2-3.4c1.2-2.3,1.2-3.3-0.9-4.9
		c-1.4-1.1-3.1-1.7-4.8-2.2c-0.7-0.2-1.8,0.4-2.4,1c-1.3,1.2-2.3,2.6-3.6,4.2c-1.1-1.3-2.2-2.5-3.1-3.7c-0.9-1.3-2.2-1.9-3.6-1.2
		c-1.7,0.9-3.4,1.9-5,3.1c-1,0.7-1,1.9-0.4,3c0.5,1,1,2,1.4,3c0.5,1,0.1,1.5-1,1.5c-0.8,0-1.5,0-2.3,0c-1.4,0-2.1,0.6-2,2
		c0,2.3,0,4.6,0.2,6.9c0.1,1.7-0.4,2.6-2.2,3c-2.3,0.5-2.3,0.7-1.7,2.9c1.2,4.1,2.4,8.3,3.6,12.4c0.6,2.1,0.8,2.2,2.9,1.8
		c0.7-0.1,1.5-0.2,2.4,0c-0.5,0.4-1,0.9-1.6,1.2c-1.3,0.6-1.5,1.5-1.2,2.7c0.4,1.7,0.8,3.3,1.3,5c1,3.5-0.2,6.2-3,8.4
		c-3.1,2.5-6.7,3.8-10.4,4.7c-11.8,3.1-23.7,3.2-35.6,0.5c-8.4-1.9-14.7-6.7-19.2-14c-4.6-7.5-8-15.4-9.4-24.1
		c-1.5-9.1,0.3-17.6,4.7-25.7c2.6-4.8,7.1-7.4,12.1-9.1c6.4-2.2,12.8-4.2,19-6.8c9.7-4,17.9-10.5,25.8-17.4c3.9-3.4,7.8-6.8,12-9.9
		c4.1-3.1,8.7-5.3,13.9-6c3.8-0.5,7.3,0.2,10.8,1.7c6.5,2.9,12,7.2,17.1,11.9c8.4,7.7,17.3,14.6,27.8,19.1c5.4,2.3,11,4.5,16.8,5.9
		c11.7,2.8,17.1,10.8,19.2,21.8c1.9,9.7-0.1,19-3.9,27.9c-1.5,3.5-3.3,6.9-5.2,10.1c-5,8.4-12.6,13.1-22.3,14.5
		c-6.7,1-13.4,1.6-20.2,1c-5.8-0.6-11.5-1.4-16.8-3.7c-2.4-1-4.6-2.6-6.5-4.3c-1.8-1.5-2.4-3.7-1.8-6c0.5-1.9,0.8-3.9,1.4-5.8
		c0.4-1.5,0.1-2.4-1.4-3c-0.5-0.2-0.9-0.5-1.4-0.8C161.3,248.8,161.4,248.7,161.4,248.5z M180,237.9c-1.6-0.2-3-0.2-4.4-0.5
		c-1.5-0.3-2.5,0.2-3,1.6c-1,3-1.9,6.1-2.9,9.1c-1.5,4.7,0.2,8.2,4,10.9c1.1,0.8,2.2,1.5,3.4,2c7.9,3.4,16,4.3,24.4,2.6
		c6.6-1.3,12.3-4.4,16.4-9.8c7.2-9.6,2.7-22.6-8.8-25.6c-6.3-1.7-11.9,0-16.9,3.9c-1.2,0.9-2.3,2.1-3.5,3c-3.5,2.9-7.4,2.4-9.9-1.4
		c-1-1.5-1.8-3-2.6-4.6c-3.2-6.8-6.2-13.6-9.4-20.4c-1.2-2.7-2.9-5-5.4-6.8c-9.1-6.6-23.2-3.4-27.8,6.6c-0.7,1.5-1.5,3-2.2,4.5
		c-3.2,6.8-6.3,13.6-9.5,20.3c-2.2,4.6-6.9,5.4-10.7,1.9c-0.6-0.5-1.1-1.1-1.7-1.6c-3.8-3.3-8.2-5.3-13.3-5.6
		c-6.6-0.4-13.2,3.4-16,9.2c-2.8,5.8-1.7,13.2,2.7,18.1c2.9,3.2,6.4,5.7,10.5,7.3c7.8,3,15.7,3.2,23.7,1.1c4.4-1.1,8.5-2.8,11.7-6.2
		c1.8-1.9,2.9-4.1,2.3-6.8c-1-3.9-2.2-7.8-3.4-11.7c-0.4-1.3-1.4-1.7-2.8-1.4c-1.4,0.3-2.8,0.4-4.5,0.6c0.3-0.5,0.4-0.8,0.6-1.1
		c1.5-2.5,3.1-4.9,4.4-7.5c2-4,3.7-8.2,5.7-12.3c1.5-3.2,3.1-6.4,4.9-9.6c5.7-10.4,22.3-10.3,28.1-0.7c1.3,2.1,2.3,4.2,3.4,6.4
		C171.7,221.5,174,230.4,180,237.9z"/>
	<path class="st1" d="M232.5,90.5c-55.1-9.4-110-8.8-165,0.1c0,0-0.1-0.2-0.1-0.4c0.3-10.7,1-21.4,4.5-31.7
		c3.9-11.4,11.6-19,22.9-23.3c9.7-3.7,19.7-6.2,30-7.3c14-1.5,27.9-1.5,41.9-1c12.2,0.5,24,2.9,35.6,6.9
		c15.6,5.4,24.5,16.2,27.4,32.1c1.4,7.5,1.9,15.2,2.7,22.7C232.5,89.2,232.5,89.9,232.5,90.5z"/>
	<path class="st1" d="M84.9,194.7c-1.6-2.8-3.2-5.6-4.8-8.4c-2.5-4.4-5-8.7-7.3-13.1c-1.4-2.8-2.4-5.8-1.6-9.1
		c1.1-4.7,4.2-7.4,8.6-8.9c5.2-1.8,10.5-3.5,15.6-5.8c9.3-4,17.2-10.2,25.2-16.2c5.6-4.1,11.2-8.2,17.1-11.8
		c8-4.8,16.3-4.3,24.6-0.1c6.3,3.2,11.7,7.7,17.2,11.9c8,6.1,16,12.1,25.3,16.1c4.7,2,9.5,3.7,14.4,5.2c4.7,1.5,8.4,3.9,9.4,9.1
		c0.5,2.7,0.1,5.4-1,7.9c-1.1,2.4-2.3,4.7-3.6,7c-2.6,4.8-5.4,9.5-8,14.2c-0.6,1.1-1.1,1.2-2.2,0.8c-11.5-4.8-21.5-11.7-29.8-21.1
		c-5.2-5.9-10.7-11.6-16.4-17c-2.9-2.7-6.3-5-9.8-6.9c-5-2.8-10.3-2.6-15.5-0.1c-4.2,2-7.8,4.8-10.9,8.1c-6,6.3-12,12.6-18,18.9
		c-5.9,6.2-12.6,11.3-20.4,15C90.4,191.9,87.7,193.3,84.9,194.7z"/>
	<path class="st1" d="M68.3,122.4c-0.2,1.7-0.4,3.4-0.5,5c-0.4,5.4-0.7,10.8-1.1,16.2c-0.2,2.6-0.5,5.1-0.9,7.7
		c-0.4,3.2,0.1,6.1,2.3,8.5c1.3,1.4,1.8,2.7,1.3,4.6c-0.4,1.2-0.3,2.6-0.5,4.3c-3.5-4.5-6.9-8.5-6.6-14.3c0.6-9.7,1.2-19.5,1.6-29.2
		c0.3-6.4,0.1-12.9,0.2-19.3c0-2.6,0.1-2.8,2.7-3.3c8.5-1.6,17.1-3.2,25.6-4.5c18-2.7,36.2-3.2,54.4-3.5c8.9-0.1,17.9,0.4,26.8,0.7
		c6.7,0.3,13.3,0.5,20,1.1c7.1,0.6,14.2,1.4,21.3,2.5c6.3,0.9,12.5,2.3,18.8,3.4c1.6,0.3,2.2,0.9,2.2,2.6c0.3,12.8,0.6,25.7,1,38.5
		c0.1,3,0.5,5.9,0.8,8.9c0.3,3.1,0,6.1-1.5,8.8c-1.4,2.5-3.1,4.7-5,7c-0.1-3-2.2-6.1,0.7-8.9c3.4-3.3,2.6-7.2,2-11.3
		c-0.7-5.1-1.1-10.2-1.6-15.3c-0.3-3.1-0.4-6.1-0.9-9.2c-0.7,3.5-1.4,7-2.1,10.5c-0.5,2.6-1,5.2-1.7,7.7c-1.4,5.2-5.3,8.2-10,10.3
		c-0.6,0.3-1.5,0-2.2-0.3c-10.3-3.3-19.5-8.6-28.2-14.9c-6.7-4.9-13.5-9.7-20.4-14.4c-4.5-3.1-9.4-5.2-15-5.6
		c-4.9-0.4-9.5,0.7-13.9,2.9c-6.6,3.3-12.2,8-18.1,12.4c-9.4,7-18.9,13.7-29.9,17.9c-1.8,0.7-3.7,1.4-5.6,1.9
		c-0.7,0.2-1.7,0-2.4-0.3c-0.7-0.2-1.3-0.8-2-1.1c-4.8-2.5-7.2-6.6-8.1-11.7c-1-5.5-2.1-10.9-3.1-16.3
		C68.5,122.4,68.4,122.4,68.3,122.4z M163.6,102.2c-0.6,0.1-1.7,0.1-2.7,0.3c-2.3,0.5-3.5,2.1-2.9,4.3c0.3,1.2,1.2,2.4,2.1,3.4
		c0.8,0.8,2,1.3,3.1,1.9c7.9,4.5,15.8,8.9,23.6,13.5c6.3,3.7,12.4,7.7,18.7,11.5c4.5,2.7,7.8,2,10.8-2.3c1.8-2.7,3.1-5.7,4.3-8.7
		c2.1-5.3,3.9-10.8,4-16.6c0-2.3-0.9-3.4-3.2-3.6c-1.8-0.2-3.5-0.2-5.3-0.3c-10.7-0.6-21.4-1.2-32.2-1.9
		C177.3,103.3,170.7,102.7,163.6,102.2z M83.3,106.1c-1.9,0-3.4-0.1-4.9,0c-2.2,0.2-3.1,1.3-3,3.5c0,0.5,0,1.1,0.1,1.6
		c1.3,6.7,2.8,13.4,5.7,19.6c0.8,1.8,2,3.6,3.3,5.1c2.5,3.1,5.5,3.6,9,1.9c1.2-0.6,2.4-1.3,3.6-2c13.3-8.2,26.2-17.1,40.3-24
		c1.4-0.7,2.6-1.8,3.7-2.9c1.2-1.3,1.4-3,0.6-4.6c-0.7-1.6-2.1-2.1-3.6-2.1c-1.2,0-2.3,0-3.5,0.1
		C117.4,103.6,100.2,104.9,83.3,106.1z"/>
	<path class="st1" d="M241.8,221c-1.6-4.3-3.1-8.4-4.6-12.5c-0.4-1.1-0.5-2,0.1-3.1c6.9-11,13.7-22,19.5-33.6c0-0.1,0.1-0.2,0.2-0.3
		c3.5,1.8,6.2,6.9,6,11c-0.3,4.8-2.1,9.1-4.1,13.3c-3.9,8.1-9.4,15.3-14.8,22.4C243.4,219.1,242.6,220,241.8,221z"/>
	<path class="st1" d="M58.1,221.9c-3-4-6.2-8-9.1-12.1c-4.3-6.1-8-12.5-10.5-19.5c-1.2-3.4-2-7-1.2-10.7c0.7-3.3,2.9-5.5,5.6-7.8
		c0.4,0.7,0.8,1.2,1,1.8c5.4,11.1,11.7,21.6,18.4,32c0.8,1.3,0.8,2.3,0.3,3.8c-1.4,3.8-2.5,7.7-3.8,11.5c-0.1,0.2-0.1,0.5-0.2,0.7
		C58.4,221.7,58.3,221.8,58.1,221.9z"/>
	<path class="st1" d="M237.7,114.8c0-2.5,0-5.1,0-7.6c0-1.2,0.3-1.7,1.6-1.7c1.9,0.1,3.9,0.1,5.8,0c1.1,0,1.7,0.4,2,1.5
		c3.2,12.2,4.4,24.6,2.9,37.1c-0.3,2.7-1.1,5.4-1.6,8.1c-0.3,1.2-1.1,1.8-2.3,2c-1.3,0.1-2.5,0.3-3.8,0.5c-1.9,0.3-2.2,0.1-2.4-2
		c-0.3-3.6-0.7-7.2-0.9-10.9c-0.5-9-0.9-18-1.3-27.1C237.6,114.8,237.7,114.8,237.7,114.8z"/>
	<path class="st1" d="M62.5,114.7c-0.6,10.3-1.1,20.5-1.7,30.8c-0.2,2.8-0.5,5.6-0.7,8.4c-0.1,1-0.5,1.4-1.5,1.3
		c-1.8-0.3-3.6-0.4-5.4-0.9c-0.7-0.2-1.6-1.1-1.7-1.9c-0.8-4.4-1.6-8.9-1.9-13.3c-0.6-8.9,0.5-17.7,2.1-26.4
		c0.3-1.8,0.7-3.5,1.2-5.3c0.2-1,0.9-1.5,2-1.5c1.9,0,3.9-0.1,5.8-0.1c1,0,1.5,0.4,1.4,1.5c-0.1,2.5,0,5,0,7.4
		C62.3,114.7,62.4,114.7,62.5,114.7z"/>
	<path class="st1" d="M218,194.7c5.5-13.2,14-24.1,21.8-35.6c1.4,1.1,2.8,2.2,4.3,3.2c0.9,0.7,0.4,1.4,0,2
		c-5.3,9.1-10.7,18.2-16.1,27.3c-0.8,1.4-1.8,2.8-2.8,4.1c-0.4,0.4-1.3,0.7-1.9,0.6C221.5,195.9,219.9,195.3,218,194.7z"/>
	<path class="st1" d="M60.2,159.5c3.1,4.4,6,8.7,9,12.8c4.7,6.6,8.8,13.5,12.2,20.9c0.8,1.9,0.8,2-1.1,2.5c-5.8,1.5-4.2,2.3-7.3-2.7
		c-5.8-9.3-11.3-18.8-17-28.3c-0.7-1.2-0.5-1.9,0.6-2.6C57.9,161.4,59.2,160.4,60.2,159.5z"/>
	<path class="st1" d="M58.6,157.6c-0.1,0.1-0.3,0.6-0.6,0.8c-2.7,2.2-5.4,4.5-8.2,6.6c-2.5,1.9-5.3,3.4-7.8,5.3
		c-6.5,4.9-8.4,11-5.9,18.8c0.6,1.7,1.2,3.4,1.8,5.1c-0.1,0.1-0.2,0.2-0.4,0.3c-0.9-1-2-1.9-2.6-3c-3.8-6.6-4.8-13.6-2.6-21
		c1.4-4.6,4.7-7.9,8.5-10.6c2.4-1.7,4.9-3.1,7.4-4.6c0.5-0.3,1.2-0.4,1.7-0.3C52.9,155.9,55.7,156.8,58.6,157.6z"/>
	<path class="st1" d="M241.4,157.3c3-0.9,5.8-1.8,8.5-2.7c0.3-0.1,0.7-0.1,1,0c7.5,3.6,14.2,8.1,16.8,16.4c2.2,7.2,0.9,14.1-3,20.5
		c-0.6,1-1.5,1.7-2.2,2.6c-0.1-0.1-0.2-0.1-0.4-0.2c0.5-1.5,1-3,1.5-4.4c3.2-9.1,0.9-15.7-7.2-20.9c-1.4-0.9-2.8-1.7-4.2-2.7
		c-3.4-2.5-6.7-5-10-7.6C241.9,158.1,241.7,157.6,241.4,157.3z"/>
	<path class="st1" d="M66,185.7c0.9,1.4,1.8,2.6,2.5,4c0.2,0.4-0.1,1.3-0.5,1.5c-2.6,1.7-5.3,3.3-8,4.9c-1.6,1-2-0.6-2.4-1.4
		c-0.5-1.1-2.5-2.2-0.7-3.4C59.8,189.2,62.9,187.6,66,185.7z"/>
	<path class="st1" d="M230.9,190.1c0.9-1.4,1.7-2.8,2.6-4c0.2-0.3,1.1-0.5,1.5-0.3c2.7,1.5,5.4,3.2,8.1,4.8c1,0.6,0.8,1.4,0.2,2.1
		c-0.9,1-0.9,3.7-2.8,2.9C237.1,194.2,234.2,192,230.9,190.1z"/>
	<path class="st1" d="M62.3,179.6c0.9,1.6,1.8,3,2.8,4.7c-1.1,0.7-2,1.3-3,1.8c-1.9,1.1-3.8,2.3-5.7,3.4c-0.3,0.2-0.9,0.6-1,0.5
		c-0.9-1.1-1.8-2.3-2.6-3.5c-0.2-0.3,0-1.2,0.3-1.4C56.2,183.2,59.2,181.5,62.3,179.6z"/>
	<path class="st1" d="M245,189.9c-3.4-2.1-6.7-4-10-6c0.1-0.3,0.1-0.4,0.1-0.5c2.3-4.4,2.3-4.4,6.5-1.9c1.6,1,3.2,1.9,4.8,2.9
		c0.8,0.5,1,1,0.5,1.9C246.3,187.4,245.7,188.6,245,189.9z"/>
	<path class="st1" d="M61.4,177.8c-3,1.8-6,3.6-8.9,5.4c-0.9,0.5-1.4,0.4-1.8-0.5c-1.9-3.7-2-2.7,1.2-4.7c1.9-1.2,3.9-2.3,5.7-3.5
		c1-0.6,1.5-0.5,2.1,0.5C60.2,176,60.8,176.9,61.4,177.8z"/>
	<path class="st1" d="M241.1,173.3c3,1.8,5.9,3.5,8.8,5.2c0.9,0.5,0.9,1.1,0.5,1.9c-1.6,3-1.6,3-4.5,1.3c-1.8-1.1-3.6-2.3-5.5-3.3
		c-1.4-0.7-1.5-1.5-0.6-2.7C240.2,174.9,240.6,174.1,241.1,173.3z"/>
	<path class="st1" d="M59.8,198.2c3.2-1.9,6.3-3.8,9.5-5.6c0.3-0.2,1.1,0,1.3,0.3c0.7,0.8,1.2,1.8,1.9,2.9c-3.3,2-6.5,4-9.7,5.9
		c-0.3,0.2-1.1-0.1-1.3-0.4C60.9,200.3,60.4,199.3,59.8,198.2z"/>
	<path class="st1" d="M230,191.6c3.1,1.9,6.2,3.7,9.2,5.6c0.8,0.5,0.9,0.9,0.4,1.7c-2,2.9-1.2,3-4.3,1.1c-2-1.2-4-2.6-6-3.7
		c-1.4-0.8-1.5-1.6-0.6-2.7C229.1,192.9,229.5,192.3,230,191.6z"/>
	<path class="st1" d="M251.9,177.4c-3-1.8-5.9-3.5-8.8-5.4c-0.4-0.2-0.5-1.1-0.4-1.6c0.2-0.7,0.7-1.3,1.2-2.2c3.1,1.9,6.1,3.6,9,5.5
		c0.3,0.2,0.4,1,0.3,1.4C252.8,175.9,252.3,176.6,251.9,177.4z"/>
	<path class="st1" d="M48.2,177.9c-0.2-0.4-0.4-0.6-0.5-0.8c-1.2-2.4-1.2-2.4,1.1-3.8c2-1.2,4-2.3,5.9-3.6c1.2-0.8,2-0.7,2.5,0.7
		c0.2,0.5,0.5,1,0.8,1.6C54.6,174,51.4,175.9,48.2,177.9z"/>
	<path class="st1" d="M246,164.3c0.6,0.3,1,0.4,1.3,0.6c2.4,1.5,4.7,3,7.1,4.5c1.1,0.7,0.9,1.4,0.4,2.3c-0.6,1.2-1.3,0.6-2,0.2
		c-2.4-1.5-4.9-2.9-7.3-4.4c-0.3-0.2-0.6-0.9-0.5-1.3C245.2,165.5,245.7,164.9,246,164.3z"/>
	<path class="st1" d="M53.9,164.4c0.4,0.7,0.8,1.2,0.9,1.8c0.1,0.5,0,1.4-0.4,1.6c-2.8,1.8-5.8,3.6-8.7,5.3
		c-1.5-2.2-1.5-2.4,0.6-3.8C48.9,167.7,51.4,166.1,53.9,164.4z"/>
	<path class="st1" d="M235.7,204.7c-3.2-2.6-6.2-5.1-9.2-7.6c0.1-0.1,0.2-0.3,0.3-0.4c3.3,2,6.6,4.1,10.1,6.2
		C236.4,203.7,236,204.3,235.7,204.7z"/>
	<path class="st1" d="M73.4,197.7c-3,2.5-6,5-9.1,7.5c-1.4-1.3-1.4-1.6,0.5-2.7c2.4-1.5,4.7-2.9,7.1-4.4c0.4-0.3,0.9-0.4,1.4-0.7
		C73.4,197.5,73.4,197.6,73.4,197.7z"/>
	<path d="M180,237.9c-6-7.5-8.3-16.4-12.4-24.3c-1.1-2.2-2.2-4.3-3.4-6.4c-5.8-9.6-22.4-9.7-28.1,0.7c-1.7,3.1-3.3,6.3-4.9,9.6
		c-1.9,4.1-3.7,8.3-5.7,12.3c-1.3,2.6-2.9,5-4.4,7.5c-0.2,0.3-0.3,0.5-0.6,1.1c1.7-0.2,3.1-0.3,4.5-0.6c1.4-0.3,2.4,0.2,2.8,1.4
		c1.2,3.9,2.4,7.8,3.4,11.7c0.7,2.6-0.5,4.8-2.3,6.8c-3.2,3.4-7.3,5-11.7,6.2c-8,2.1-15.9,1.9-23.7-1.1c-4.1-1.6-7.6-4.1-10.5-7.3
		c-4.4-4.8-5.5-12.2-2.7-18.1c2.8-5.8,9.4-9.6,16-9.2c5.1,0.3,9.5,2.3,13.3,5.6c0.6,0.5,1.1,1,1.7,1.6c3.8,3.5,8.5,2.7,10.7-1.9
		c3.2-6.7,6.3-13.6,9.5-20.3c0.7-1.5,1.5-3,2.2-4.5c4.6-10,18.7-13.2,27.8-6.6c2.4,1.8,4.1,4.1,5.4,6.8c3.2,6.8,6.3,13.6,9.4,20.4
		c0.7,1.6,1.6,3.1,2.6,4.6c2.5,3.7,6.4,4.3,9.9,1.4c1.2-1,2.3-2.1,3.5-3c5-3.9,10.7-5.5,16.9-3.9c11.6,3.1,16,16.1,8.8,25.6
		c-4.1,5.4-9.8,8.5-16.4,9.8c-8.4,1.7-16.6,0.8-24.4-2.6c-1.2-0.5-2.3-1.2-3.4-2c-3.8-2.7-5.5-6.2-4-10.9c1-3,1.9-6.1,2.9-9.1
		c0.5-1.4,1.4-1.9,3-1.6C177,237.6,178.4,237.7,180,237.9z"/>
	<path d="M163.6,102.2c7.1,0.5,13.7,1.1,20.3,1.5c10.7,0.7,21.4,1.3,32.2,1.9c1.8,0.1,3.5,0.1,5.3,0.3c2.3,0.2,3.2,1.3,3.2,3.6
		c-0.1,5.8-1.9,11.3-4,16.6c-1.2,3-2.5,6-4.3,8.7c-2.9,4.4-6.3,5-10.8,2.3c-6.3-3.7-12.4-7.7-18.7-11.5c-7.8-4.6-15.7-9-23.6-13.5
		c-1-0.6-2.3-1.1-3.1-1.9c-0.9-0.9-1.8-2.1-2.1-3.4c-0.6-2.3,0.6-3.9,2.9-4.3C161.9,102.3,163,102.3,163.6,102.2z M210.6,136.4
		c1.8,0.3,2.8-0.8,3.7-2c5.6-7.3,7.7-15.9,8.6-24.9c0.1-0.5-0.7-1.1-1.1-1.7c-0.4,0.5-1,0.9-1.1,1.5
		C218.8,118.8,216.7,128.3,210.6,136.4z"/>
	<path d="M83.3,106.1c16.8-1.2,34.1-2.5,51.3-3.8c1.2-0.1,2.3-0.1,3.5-0.1c1.6,0,2.9,0.6,3.6,2.1c0.7,1.7,0.6,3.3-0.6,4.6
		c-1.1,1.1-2.3,2.3-3.7,2.9c-14.1,6.8-27,15.7-40.3,24c-1.2,0.7-2.4,1.4-3.6,2c-3.5,1.7-6.5,1.2-9-1.9c-1.3-1.6-2.4-3.3-3.3-5.1
		c-2.9-6.2-4.5-12.9-5.7-19.6c-0.1-0.5-0.1-1.1-0.1-1.6c0-2.2,0.9-3.3,3-3.5C79.9,106,81.4,106.1,83.3,106.1z M89.5,136.5
		c-6.4-8.6-8.4-18.6-10.6-28.6c-1.5,0.3-2,1-1.9,2.2c0.3,2.2,0.5,4.5,1,6.7c1.4,6,3.4,11.8,6.9,17C86,135.2,87.2,136.4,89.5,136.5z"
		/>
	<path class="st1" d="M210.6,136.4c6.1-8.1,8.2-17.5,10.1-27.1c0.1-0.5,0.7-1,1.1-1.5c0.4,0.6,1.2,1.2,1.1,1.7
		c-0.9,9-3,17.5-8.6,24.9C213.4,135.6,212.4,136.7,210.6,136.4z"/>
	<path class="st1" d="M89.5,136.5c-2.3-0.2-3.5-1.3-4.5-2.8c-3.5-5.2-5.5-11-6.9-17c-0.5-2.2-0.7-4.4-1-6.7
		c-0.1-1.1,0.4-1.9,1.9-2.2C81,117.9,83.1,127.9,89.5,136.5z"/>
</g>
<line class="st2" x1="162.6" y1="24.9" x2="162.5" y2="26.8"/>
</svg>
